<svg version="1.2" xmlns="http://www.w3.org/2000/svg" viewBox="0 0 740 417" width="740" height="417"><defs><clipPath clipPathUnits="userSpaceOnUse" id="cp1"><path d="m-42.5-24h786v446h-786z"/></clipPath></defs><style>.a{fill:#e7e2f5}.b{fill:#7d1641}.c{fill:#8c244f}.d{fill:#982e5b}.e{fill:#03318b}.f{fill:#aec3ff}.g{fill:#e2810e}.h{fill:#ffc76c}.i{fill:#ffa412}.j{fill:#2c3a64}.k{fill:#ed985f}.l{fill:#8c9df4}.m{fill:#6980e2}.n{fill:#ffb27d}.o{fill:#012468}.p{fill:#06389a}.q{fill:#ed975d}.r{fill:#233862}.s{fill:#00256e}.t{fill:#e06236}.u{fill:#ffb93e}.v{fill:#91b0f2}.w{opacity:.5;fill:#e2810e}.x{fill:#40b028}</style><g clip-path="url(#cp1)"><path class="a" d="m766.9 417l-731.6-0.2c0 0-63.7-115.6-5.7-204.4 58-88.7 147.1-43.2 154.2-107.3 0.2-2.2 0-4.3 0-6.4q0-0.8 0.1-1.5c2.1-36.8 29.3-60.6 65.1-74.3q1.7-0.7 3.5-1.3c57.1-20.5 114.1-29.7 171.3-3.6 59.5 27.2 13.4 63.2 133.4 50.7 65.5-6.9 70.8 45.3 72.7 79.3 4.9 84.7 199.8 10.5 137 269z"/><path class="b" d="m505.3 274c-0.1 15.3-3.4 29.9-9.5 43.3-18.3 39.9-61 68.1-110.5 68.1h-34.3c-43.8 0-82.3-22-103.3-54.8-10.6-16.6-16.7-36-16.7-56.6 0-15.3 3.4-30 9.5-43.3 18.2-40 61-68.2 110.5-68.2h34.3c45 0 84.4 23.3 104.9 57.6 9.6 16 15 34.4 15 53.9z"/><path class="b" d="m405.6 338.1l-11.2 67.6c-1.5 5.2 2.7 10.3 8.6 10.3h29.4c6.3 0 12.1-3.3 14.9-8.5l45.7-84.7z"/><path class="b" d="m338.6 339.3l9 66.4c1.5 5.2-2.8 10.3-8.6 10.3h-29.4c-6.3 0-12.1-3.3-15-8.5l-46.9-76.9z"/><path class="b" d="m249.3 259v30c0 5.7-5.1 10.4-11.2 10.4h-23.1c-6.2 0-11.3-4.7-11.3-10.4v-30c0-5.7 5.1-10.4 11.3-10.4h23.1c6.1 0 11.2 4.7 11.2 10.4z"/><path class="c" d="m249.3 259v16.7c0 5.7-5.1 10.4-11.2 10.4h-23.1c-6.2 0-11.3-4.7-11.3-10.4v-16.7c0-5.7 5.1-10.4 11.3-10.4h23.1c6.1 0 11.2 4.7 11.2 10.4z"/><path class="d" d="m490.2 220.1c2.9 12.9 0.6 31.3-3 41-24.2 64.7-81.2 76.4-139.3 81.3-41.4 3.5-100.2-11.8-100.2-11.8-10.6-16.6-16.7-36-16.7-56.6 0-15.3 3.4-30 9.5-43.3 18.2-40 61-68.2 110.5-68.2h34.3c45 0 84.4 23.3 104.9 57.6z"/><path class="c" d="m323.4 191.8l-46.3 8.7c-4.6 0.9-9-1-9.7-4.3l-12.8-58.6c-0.2-1-0.1-2 0.3-2.9 1.6-3.5 7.3-5.9 12.2-4.4 19.6 6 52.8 20.6 63.3 53.7 1.1 3.3-2.1 6.9-7 7.8z"/><path class="b" d="m279 200.2l-1.9 0.3c-4.6 0.9-9-1-9.7-4.3l-12.8-58.6c-0.2-1-0.1-2 0.3-2.9q0.4 0.2 0.7 0.4c12.3 8.5 31.3 26.2 33.4 55.6 0.3 4.2-4 8.3-10 9.5z"/><path class="e" d="m266.7 230.4c0-3.6 3.1-6.5 7-6.5 3.9 0 7 2.9 7 6.5 0 3.6-3.1 6.6-7 6.6-3.9 0-7-3-7-6.6z"/><path fill-rule="evenodd" class="c" d="m533.8 304.3q-1 0-2-0.3c-5.2-1.2-8.2-7-7.8-15.1 0.4-7.9 4-16.2 9.7-22.8q3.9-4.4 8.9-7.7c-1.6-2.4-3.7-4.6-6.5-6.6-4.8-3.4-9.8-4.3-15.2-3-14.6 3.7-26.9 23-27.9 25.2-0.4 1.2-1.8 1.8-3 1.4-1.4-0.4-2-1.7-1.6-2.9 0.4-1.2 4-7 9.1-12.7 8.7-9.9 16.3-13.7 21.2-15.1 7.2-2.1 14-1 20.3 3.4q4.7 3.3 7.7 7.9c5-2.6 10.6-4.4 16.8-5.3 1.3-0.2 2.6 0.6 2.8 1.9 0.2 1.2-0.7 2.4-2 2.6-5.7 0.8-10.8 2.5-15.3 4.9 1.3 3.1 2.3 6.6 2.6 10.3 0.7 7.6-0.9 16-4.5 22.9-3.7 7-8.5 11-13.3 11zm11-41.7q-4.1 2.8-7.2 6.4c-5.2 5.9-8.3 13.2-8.7 20.1-0.3 5.6 1.4 9.9 4.2 10.5 2.7 0.7 6.6-2.7 9.5-8.3 3.2-6.1 4.7-13.8 4.1-20.5-0.2-2.5-0.8-5.3-1.9-8.2z"/><path class="f" d="m483.6 416c-1.2 0-2.5-0.9-2.8-2l-73.3-222.5c-0.4-1.1 0.3-1.9 1.5-2 1.3 0 2.5 0.9 2.9 2l73.3 222.5c0.3 1.1-0.3 2-1.6 2z"/><path class="f" d="m542.7 415.7c-1.2 0-2.5-0.9-2.9-2l-73.2-222.5c-0.4-1.1 0.3-2 1.5-2 1.2 0 2.5 0.9 2.8 2l73.4 222.5c0.3 1.1-0.4 2-1.6 2z"/><path class="f" d="m479.1 222.2l-59.3 0.4c-1.2 0-2.4-0.9-2.7-1.9-0.3-1 0.3-1.9 1.4-1.9l59.4-0.3c1.1 0 2.3 0.8 2.7 1.8 0.3 1-0.4 1.9-1.5 1.9z"/><path class="f" d="m491.9 261.1l-59.3 0.3c-1.2 0-2.4-0.8-2.7-1.8-0.4-1.1 0.3-1.9 1.4-1.9l59.4-0.4c1.1 0 2.3 0.9 2.7 1.9 0.3 1-0.4 1.8-1.5 1.8z"/><path class="f" d="m504.2 298.5l-59.3 0.3c-1.2 0-2.4-0.8-2.7-1.8-0.3-1.1 0.3-1.9 1.5-1.9l59.3-0.4c1.1 0 2.3 0.9 2.7 1.9 0.3 1-0.4 1.9-1.5 1.9z"/><path class="f" d="m518.1 340.6l-59.3 0.3c-1.2 0-2.4-0.8-2.7-1.8-0.4-1.1 0.3-1.9 1.4-1.9l59.4-0.3c1.1 0 2.3 0.8 2.7 1.8 0.3 1-0.4 1.9-1.5 1.9z"/><path class="f" d="m532.6 384.7l-59.3 0.3c-1.2 0-2.4-0.8-2.7-1.8-0.3-1.1 0.3-1.9 1.5-1.9l59.3-0.3c1.1-0.1 2.3 0.8 2.7 1.8 0.3 1-0.4 1.9-1.5 1.9z"/><path class="g" d="m201 416c-23.2 0-42-18.7-42-41.7 0-23.1 18.8-41.7 42-41.7 23.2 0 42 18.6 42 41.7 0 23-18.8 41.7-42 41.7z"/><path class="h" d="m197.4 416c-23.3 0-42-18.7-42-41.7 0-23.1 18.7-41.7 42-41.7 23.2 0 42 18.6 42 41.7 0 23-18.8 41.7-42 41.7z"/><path fill-rule="evenodd" class="i" d="m197.4 412.8c-10.2 0-19.9-4-27.1-11.2-7.2-7.2-11.2-16.7-11.2-26.8 0-10.2 4-19.7 11.2-26.9 7.2-7.1 16.9-11.1 27.1-11.1 10.2 0 19.8 4 27 11.1 7.3 7.2 11.2 16.7 11.2 26.9 0 10.1-3.9 19.6-11.2 26.8-7.2 7.2-16.8 11.2-27 11.2zm35.9-38c0-19.8-16.1-35.7-35.9-35.7-19.9 0-36 15.9-36 35.7 0 19.7 16.1 35.7 36 35.7 19.8 0 35.9-16 35.9-35.7z"/><path class="i" d="m202.6 385.8q0.2-1.2-0.1-2.2-0.2-1-0.9-1.8-0.7-0.9-1.9-1.7-1.2-0.8-2.9-1.6-3-1.5-5.4-2.9-2.4-1.5-4-3.3-1.6-1.7-2.3-4-0.8-2.1-0.5-5 0.3-2.5 1.5-4.4 1.1-2 2.9-3.3 1.9-1.3 4.3-2 2.4-0.7 5.3-0.6l0.7-6.3 5.1 0.6-0.8 6.4q2.7 0.6 4.8 2 2.1 1.3 3.5 3.2 1.3 1.9 1.9 4.4 0.5 2.5 0.2 5.4l-9.2-1.1q0.4-3.5-0.9-5.4-1.4-1.9-4-2.3-1.4-0.1-2.5 0.1-1.1 0.3-1.9 0.9-0.7 0.6-1.1 1.5-0.5 0.9-0.6 2-0.1 1.1 0.1 2 0.2 0.9 0.9 1.8 0.7 0.8 1.9 1.6 1.2 0.8 3 1.7 3 1.6 5.3 3 2.4 1.5 4 3.3 1.7 1.8 2.4 4 0.7 2.2 0.4 5-0.3 2.6-1.5 4.5-1.1 2-2.9 3.3-1.9 1.3-4.3 1.9-2.4 0.6-5.3 0.6l-0.7 5.8-5.1-0.6 0.7-5.8q-2.6-0.6-4.9-1.7-2.4-1.2-4.1-3.1-1.7-1.9-2.5-4.5-0.9-2.7-0.4-6.2l9.1 1.1q-0.2 2.1 0.2 3.5 0.4 1.5 1.3 2.4 0.9 1 2.1 1.5 1.2 0.5 2.5 0.6 1.5 0.2 2.7 0 1.1-0.3 2-0.9 0.8-0.6 1.3-1.4 0.5-0.9 0.6-2z"/><path class="j" d="m167 226.9c0.1-0.5-11.2 5.1-11.8 5.7-5.3 5.9-3.8 13.6-0.7 13.6 1.9 0.1 1.5 3.3 1.5 3.3l21.8-9.1c0 0-2.6-15.2-10.8-13.5z"/><path class="j" d="m169.7 228.1c0 0 0.8-8.4-8.7-8.4 0 0 2.9 0.8 4.3 2.3 0 0-6-3.5-12.6 1.9-6.5 5.4-2.5 19-4.5 21.5-2 2.6-9.8 3.1-8.8 11.5 1 8.3 24.7 18.7 23.2 25.6 0 0 9.3-13.6 2.6-19.8 0 0 3.3 3.1 3.6 6.7 0 0 0.9-7.1-3.6-9.3-4-2-7.3-9.3-6.9-10.6 0.3-1.3 11.4-21.4 11.4-21.4z"/><path class="k" d="m161.1 267.7c-1.5-7-10.6-9.1-14.9-3.4-0.8 1-1.3 2.2-1.5 3.6-1 7.9 11.8 40.2 13.6 43.1 3.3 5.4 22.9 23.6 22.9 23.6l3.6-2.2c0 0-13.9-23.3-16-25.5-2.5-2.5-4.9-25.9-7.7-39.2z"/><path class="k" d="m179.9 332.4c0 0 5.2-3.4 7.2-3.2 2 0.2 7.8 1.9 7.9 2.7 0 0.9-6.5 1.4-6.9 1.9-0.4 0.4-4.9 3.4-6.5 2.4-1.6-0.9-1.7-3.8-1.7-3.8z"/><path class="l" d="m143.1 410.1l-4.7-0.7c0 0-15.9-12.5-18.2-35.8q-0.4-3.6-0.1-7.2c0-0.3 0-0.6-0.2-0.8-0.5-0.8-1.8-2.7-3.5-5.5-1.7-2.7-4.6-7.8-7.7-13.6-5.7-10.3-12.4-22.7-14.7-26.6-7.2-12.5-3.7-21-3.7-21 0 0 20.2-2 25.8-6.8l2 3.1c0 0 4.4 19.3 4.2 19.3q0.3 1 0.6 2.1c3.5 10.6 7.5 23.8 9.7 34.6 1.2 6.1 1.8 11.4 1.5 15-0.1 1.3 0 3.2 0.4 5.5 1.9 13.9 8.6 38.4 8.6 38.4z"/><path class="e" d="m152.9 416h-19.6c0 0-0.5-3 0.6-5.2 0.9-2.2 2.4-2.3 0.2-5.7 1.2 1.3 5.2 1.8 8.1 1.5 0.3 0.5 2.2 4.3 3.3 5.1 1.3 0.9 7.1 0.6 7.4 4.3z"/><path class="m" d="m122.9 316.6c-1.7 9.4-5.7 25-14.2 29.9-5.7-10.3-12.4-22.7-14.7-26.6-7.2-12.5-3.7-21-3.7-21 0 0 20.2-2 25.8-6.8l2 3.1c0 0 4.4 19.3 4.2 19.3q0.3 1 0.6 2.1z"/><path class="e" d="m159 263.4c0 0 2.8 2.8 4 6.3 0 0-4.4 12.6-14.8 14.2 0 0 8.2-20.5 10.8-20.5z"/><path class="l" d="m109.2 300.4v-3.7c-7.3 0.9-25.2-8.7-25.2-8.7 0 0-7.7 5.1-8.7 19.5-0.5 7.1-3.8 36.9-4.1 45.8-0.2 3.2-0.2 5.5-0.2 6.4q0 0.1 0 0.1 0 0.4-0.3 0.7-2.3 2.9-4 6c-11.2 20.7-5.3 48.7-5.3 48.7l2.5-0.7c0 0 9.5-29 15.7-41.6 1-2.1 2-3.8 2.8-4.7 2.3-2.8 4.7-7.6 7.2-13.3 4.5-10.8 9-25.1 12.1-36.1 0.2 0 7.5-18.4 7.5-18.4z"/><path class="n" d="m152 276c-12-2.7-4.3-19.4-3.6-19.1 1.7-0.4 5.3-3.2 8.5-8.9l0.5 0.4 7.3 6.4c0 0-1.6 2.5-3.1 4.9-1.1 1.9-2.1 3.8-1.9 4.4 0.6 0.5-4.5 12.6-7.7 11.9z"/><path class="k" d="m164.7 254.8c0 0-1.6 2.5-3.1 4.9-4.6-2.8-4.6-8.4-4.2-11.3z"/><path class="n" d="m164.9 258c0 0-11-6.1-7.1-12.9 4-6.8 5.2-12.2 12.4-8.6 7.3 3.7 7.1 7 6.4 9.6-0.8 2.6-8.7 13.3-11.7 11.9z"/><path class="j" d="m178.5 242.1c-0.5-3-2.1-3.3-3.2-3.1-4.1-6.7-10.8-4.1-10.8-4.1-3.6 4.5-8.7 5.3-8.7 5.3 0 0 1.3 2.3 6.6 3.8 1.6 0.4 3.4 0.2 5.2-0.4-3.7 2-7.5 2.8-7.5 2.8 7 0.6 13.6-5.7 14.3-6.4 0.3 1 0.9 3 0.6 4.6-0.5 2-2.3 5.7-1.2 6.2 0 0 5.4-4.1 4.7-8.7z"/><path class="e" d="m77 416h-19.7c0 0-0.4-3 0.6-5.2 1-2.2 2.5-3.2 2.2-5.8 1.2 1.3 3.2 2.7 6.1 2.3 0.3 0.6 2.2 3.6 3.4 4.4 1.3 0.9 7 0.6 7.4 4.3z"/><path class="e" d="m153.4 289.2c-2.5 0.9-6 1.4-9.7 1.8-5.2 0.5-10.5 0.9-13.3 2-1 0.4-1.7 0.9-1.9 1.6-1.2 3.6-6.6 9.2-6.6 9.2-34.2-1.6-37.9-15.8-37.9-15.8 23-26.5 62-34.2 62-34.2 0 0 2.8-1.2 9.8 4.3 4.6 3.7 4.1 5.1 4.1 5.1 0 0 1 23.5-6.5 26z"/><path class="o" d="m143.7 291c-5.2 0.5-10.5 0.9-13.3 2-1.1-16.9 6.9-29.6 6.9-29.6 0 0 5.3 21.2 6.4 27.6z"/><path class="n" d="m149 260.1c0 0-12.9 1.3-13.9 9.6-1.1 8.4 12.4 42.4 14.3 45.5 3.5 5.6 24.2 24.8 24.2 24.8l3.8-2.3c0 0-14.7-24.6-17-26.9-3.5-3.7-7-47.8-11.4-50.7z"/><path class="p" d="m135.4 274.7c0.1 0.2 12 3.9 19.6 0 0 0 1.7-17.5-7.5-16.6-9.1 1-14.5 3.9-14.8 8.2-0.2 4.3 2.7 8.4 2.7 8.4z"/><path class="n" d="m172.4 337.5c0 0 4.6-4.2 6.6-4.3 2-0.1 8 0.6 8.2 1.4 0.2 0.9-6.1 2.4-6.5 2.9-0.3 0.6-4.2 4.2-5.9 3.5-1.8-0.7-2.4-3.5-2.4-3.5z"/><path class="e" d="m406.8 173.1c-0.1 1-1 1.7-2 1.8q-0.3 0-0.6-0.1c-6.4-1.1-12.7-1.8-18.9-2.2q-1.8-0.1-3.6-0.2-0.8-0.1-1.5-0.1-0.4 0-0.8 0-2.4-0.1-4.8-0.1-1.2-0.1-2.3-0.1c-3.2 0-6.3 0.1-9.2 0.2q-1.1 0-2.3 0-0.9 0.1-1.8 0.1-0.2 0-0.4 0.1-1.9 0.1-3.7 0.2-0.1 0-0.1 0c-11.4 0.8-18.7 2.2-18.9 2.2-1.2 0.2-2.4-0.6-2.6-1.8-0.2-1.2 0.5-2.4 1.8-2.6 0.2-0.1 4.7-0.9 12.2-1.6q0.9-0.1 1.9-0.2 0.5-0.1 1-0.1 1-0.1 2.1-0.2 0.3 0 0.6 0 0.5-0.1 1-0.1 0.6-0.1 1.2-0.1 0.7-0.1 1.4-0.1 1.4-0.1 2.9-0.2c5.8-0.3 12.8-0.4 20.5-0.1q0.7 0.1 1.5 0.1 0.4 0 0.9 0.1 1.2 0 2.3 0.1 0.5 0 1 0 0.2 0 0.4 0.1 1.5 0.1 3 0.2 2.3 0.2 4.7 0.5 5.6 0.6 11.3 1.5c1.2 0.3 2.1 1.4 1.8 2.7z"/><path class="g" d="m335.6 132.5c0-20.5 16.8-37.2 37.6-37.2 20.7 0 37.5 16.7 37.5 37.2 0 20.6-16.8 37.3-37.5 37.3-20.8 0-37.6-16.7-37.6-37.3z"/><path class="h" d="m332.4 132.5c0-20.5 16.8-37.2 37.5-37.2 20.7 0 37.5 16.7 37.5 37.2 0 20.6-16.8 37.3-37.5 37.3-20.7 0-37.5-16.7-37.5-37.3z"/><path fill-rule="evenodd" class="i" d="m369.9 166.9c-9.2 0-17.7-3.6-24.2-10-6.5-6.4-10-14.9-10-24 0-9 3.5-17.5 10-23.9 6.5-6.5 15-10 24.2-10 9.1 0 17.7 3.5 24.1 10 6.5 6.4 10 14.9 10 23.9 0 9.1-3.5 17.6-10 24-6.4 6.4-15 10-24.1 10zm0-65.8c-17.7 0-32.2 14.3-32.2 31.8 0 17.6 14.5 31.9 32.2 31.9 17.7 0 32.1-14.3 32.1-31.9 0-17.5-14.4-31.8-32.1-31.8z"/><path class="i" d="m374.6 142.8q0.1-1.1-0.1-2-0.2-0.8-0.8-1.6-0.7-0.8-1.7-1.5-1.1-0.7-2.6-1.4-2.7-1.3-4.8-2.6-2.2-1.4-3.6-2.9-1.5-1.6-2.1-3.6-0.7-1.9-0.4-4.5 0.3-2.2 1.3-4 1-1.7 2.6-2.9 1.7-1.2 3.8-1.8 2.2-0.6 4.8-0.5l0.6-5.6 4.6 0.5-0.7 5.7q2.4 0.6 4.2 1.8 1.9 1.2 3.1 2.9 1.2 1.7 1.7 3.9 0.5 2.2 0.2 4.8l-8.2-0.9q0.4-3.2-0.8-4.9-1.3-1.7-3.6-2-1.3-0.1-2.2 0.1-1 0.2-1.7 0.8-0.6 0.5-1 1.3-0.4 0.8-0.5 1.8-0.1 1 0.1 1.8 0.1 0.8 0.8 1.6 0.6 0.7 1.7 1.4 1 0.7 2.7 1.6 2.6 1.3 4.7 2.7 2.1 1.3 3.6 2.9 1.4 1.5 2.1 3.5 0.7 2 0.4 4.5-0.3 2.3-1.3 4-1.1 1.8-2.7 2.9-1.6 1.2-3.8 1.7-2.2 0.6-4.8 0.5l-0.6 5.2-4.5-0.5 0.6-5.2q-2.3-0.4-4.4-1.5-2.1-1-3.6-2.7-1.5-1.7-2.3-4.1-0.8-2.3-0.4-5.4l8.2 0.9q-0.2 1.9 0.2 3.2 0.3 1.3 1.1 2.1 0.8 0.9 1.9 1.3 1.1 0.4 2.2 0.5 1.4 0.2 2.4 0 1.1-0.2 1.8-0.8 0.8-0.5 1.2-1.2 0.4-0.8 0.6-1.8z"/><path class="n" d="m406.7 146.9c-1.1-0.9-3.6-3.1-3.8-2.6-0.1 0.2 0 0.8 0.2 1.3-1.5-0.8-3.2-1.3-7.2-0.9-0.8 0-1.6 0.4-2.1 1-0.4 0.6-0.6 1.4 0.3 2.1 1.9 1.4 1.4 0.6 4 2.7 2.6 2.1 6 2.9 8.2 1.8l2.8-0.2 0.7-4.4c0 0-1.5-0.4-3.1-0.8z"/><path class="n" d="m472.5 113.3c0 0-5.9 6.9-13.4 4 0 0-1.7-3.9-1.7-6.7q0-0.6 0-1c0-3.3-0.1-5.1-0.1-5.1 0.3-0.1 11.5-4.7 11.5-4.3-0.2 8.7 3.7 13.1 3.7 13.1z"/><path class="q" d="m467.6 102.3c-1 2-4.7 5.8-10.2 7.3 0-3.3-0.1-5.1-0.1-5.1 0.3-0.1 10.6-2.8 10.3-2.2z"/><path class="n" d="m454.9 104.2c0 0 12.6 2.9 14.3-4.9 1.7-7.7 4.4-12.6-3.5-14.8-7.9-2.2-10.1 0.4-11.3 2.9-1.2 2.4-2.7 15.8 0.5 16.8z"/><path class="r" d="m468.8 101.5c0.1 0 2.8 0.9 7.9-9.2 0.8-1.6 1.4-5-0.5-8.1-1.9-3-8.5-5.4-14-6.4-5.5-1-6.8 2-8.1 5.1-1.4 3.3-5.3 5.9-5.3 5.9 4.7 2.7 10.4-1.1 12.4-0.5 2 0.6 2.7 3.7 2.8 4.7 0.2 1 0.4 1.9 2.9 1 2.5-0.9 1.2 3.5 0.8 4.3 0 0-0.4 2.3 1.1 3.2z"/><path class="s" d="m482.3 294.9h7.5c1.6 0 3.4-1.6 3.9-4.5 0.4-2.9 3.7-4.5 4.4-6.9 0.7-2.3-3-5.7-3-5.7l-0.6-0.7-0.6-0.8-6 1.4c0 0-0.1 1.4-0.2 3.2-0.1 1.3-0.1 2.8-0.1 4.1 0.2 3.2-0.8 6.6-3.7 7.2-2.8 0.6-1.6 2.7-1.6 2.7z"/><path class="s" d="m448.3 295.1c0 0 21-0.1 21-0.2 1.4-0.6 0.4-5.4 0.2-7 0-0.3-0.1-0.5-0.1-0.5 0 0-7-5.6-8-1.3q-0.1 0.2-0.1 0.4c-1.2 4-6.7 5.9-9.9 6.4-2.4 0.4-3 1.4-3.1 2.2z"/><path class="e" d="m452.2 180.2c0 0 1.1 13.3 2.4 29.3 1.7 21.7 3.8 48.4 4 53.5 0.3 8.8 1.7 22.8 1.7 22.8 0 0 3.4 3.3 10.1 1.9 0 0 6-20 7.7-41.2q0.1-0.6 0.1-1.1c1.6-21.6 4.1-67 4.1-67z"/><path class="s" d="m452.2 180.2c0 0 1.1 13.3 2.4 29.3l23.5 37q0.1-0.6 0.1-1.1c1.6-21.6 4.1-67 4.1-67z"/><path class="e" d="m458.9 177.4c0 0 10.9 44.5 19.2 69.1 8.3 24.6 8.7 36.5 8.7 36.5 0 0 9.4-1.9 10.4-3.7 0 0 3.2-42.1-3.2-54.1-3.6-6.8-3-22.6-3-29.8 0-13.3-4.2-26.5-4.2-26.5z"/><path class="n" d="m501.3 173l0.2 3.1c0 0-2 5.6 3.8 8.4 0 0 2.4 1 2.5-0.9 0.1-2-0.2-1.3 0-3.9 0.2-2.7-0.9-5.3-2.7-6.1l-1.4-1.7z"/><path class="m" d="m503.6 175.3c-2.2 0.7-2.5 0.5-2.5 0.5 0 0-10.4-18.8-11.5-20.6-1-1.7-22.2-21.1-22.2-21.1l5.5-20.1c0 0 24 30.9 26.5 35.3 4.3 7.3 6.9 24.3 6.9 24.3 0 0-1.1 1.1-2.7 1.7z"/><path class="l" d="m448.2 142c0 4.1 0.3 8.7 0.6 13.4q0 0.5 0.1 0.9 0.3 4.4 0.6 8.7 0.2 1.7 0.4 3.3v0.2c0 0.4 0.1 0.9 0.1 1.3 1.1 10.6 2.2 19.1 2.4 19.2q0.4 0.2 0.8 0.2c2.8-0.3 11.2 0.3 18.1-1.2 5.8-1.2 10.8-3.5 16.1-6.6 0.7-0.5 2.3-1.5 2.2-2.4-0.1-0.9-0.4-2.2-0.6-3.8-1.1-5.7-2.9-15.4-3.5-26.8q-0.2-3.2-0.5-6.4c-0.6-5.3-1.6-10.5-2.8-15-2.4-8.4-5.9-14.9-10.2-17.4-0.6-0.3-3.7 1.6-6.5 3.4-2.6 1.6-5.3 2.1-8 1.9l-2.3 2.5c-2.8 3.3-5.8 7.7-6.7 13.8q-0.1 0.7-0.1 1.5c-0.3 2.5-0.3 5.7-0.2 9.3z"/><path class="m" d="m448.2 142c0 4.1 0.3 8.7 0.6 13.4q0 0.5 0.1 0.9c16.1-10 18.5-28.3 18.5-28.3-7.9 0.3-14.2 2.1-19 4.7-0.3 2.5-0.3 5.7-0.2 9.3z"/><path class="l" d="m407.5 149.9c-0.2-2.4 1-2.8 1-2.8 0 0 24.3-4.4 26.4-5 2.1-0.7 19.7-18.9 19.7-18.9 0 0 6.8-7.6 12.3-5.9 4.8 1.5 6.7 5.2 7.3 8.7 0.8 4.3-1.1 8.5-4.9 10.8-8.2 5-24.8 15-28.7 16.1-8.7 2.5-32.1 0.2-32.1 0.2 0 0-0.9-1.4-1-3.2z"/><path class="t" d="m404.5 143.8c0 0-0.1 0.7-0.3 1.3-0.1 0.4-0.6 0.6-1.1 0.5-1.1-0.3-1.3-2-1.3-2l1.6-0.6z"/><path class="u" d="m609.2 412.1v3.5c0 0.2-0.1 0.5-0.3 0.7q-0.3 0.4-0.7 0.5-0.2 0-0.3 0.1-0.2 0-0.3 0h-66.2c-0.8 0-1.4-0.5-1.5-1.1q-0.1-0.1-0.1-0.2 0 0 0 0v-3.5q0 0 0-0.1 0 0 0.1-0.1c0.1-0.6 0.7-1.1 1.5-1.1h66.2q0.1 0 0.3 0 0.1 0 0.3 0.1 0.4 0.1 0.7 0.5c0.2 0.2 0.3 0.4 0.3 0.7z"/><path class="i" d="m576.7 416.9h-35.4c-0.7 0-1.2-0.4-1.4-1q0-0.1 0-0.1-0.1-0.1-0.1-0.2 0 0 0 0v-3.5q0 0 0-0.1 0 0 0.1-0.1 0-0.1 0-0.1c0.2-0.6 0.7-1 1.4-1h31c0.5 1.8 1.7 4.3 4.4 6.1z"/><path class="i" d="m601.1 416.9h-0.7v-6.1h0.7z"/><path class="i" d="m598.6 416.9h-0.8v-6.1h0.8z"/><path class="i" d="m595.5 416.9h-0.7v-6.1h0.7z"/><path class="i" d="m590.9 416.9h-0.8v-6.1h0.8z"/><path class="i" d="m585.9 416.9h-0.7v-6.1h0.7z"/><path class="i" d="m578.3 416.9h-0.7v-6.1h0.7z"/><path class="i" d="m571.2 416.9h-0.7v-6.1h0.7z"/><path class="i" d="m564.9 416.9h-0.8v-6.1h0.8z"/><path class="i" d="m603.5 416.9h-0.7v-6.1h0.7z"/><path class="i" d="m605.1 416.9h-0.7v-6.1h0.7z"/><path class="i" d="m606.7 416.9h-0.7v-6.1h0.7z"/><path class="i" d="m607.9 410.8v6.1q-0.2 0-0.3 0h-0.5v-6.1h0.5q0.1 0 0.3 0z"/><path class="i" d="m608.9 411.4v4.9q-0.3 0.4-0.7 0.5v-5.9q0.4 0.1 0.7 0.5z"/><path class="u" d="m602.1 406v3.4q0 0.5-0.3 0.8 0 0.1-0.1 0.1c-0.2 0.2-0.4 0.3-0.6 0.4q-0.2 0-0.3 0-0.1 0.1-0.3 0.1h-66.1c-0.8 0-1.5-0.5-1.6-1.2q0 0 0-0.1 0 0 0-0.1v-3.4q0-0.1 0-0.1 0-0.1 0-0.1c0.1-0.7 0.8-1.2 1.6-1.2h66.1q0.1 0 0.1 0 0.1 0 0.1 0 0 0 0 0.1 0.1 0 0.1 0 0.1 0 0.3 0 0.1 0.1 0.2 0.1 0 0 0 0.1 0.1 0 0.1 0 0 0 0.1 0 0.1 0.1 0.2 0.1 0 0.1 0 0.1 0 0 0.1 0v0.1q0 0 0 0 0.3 0.4 0.3 0.8z"/><path class="i" d="m569.6 410.8h-35.4c-0.7 0-1.2-0.5-1.4-1q0-0.1 0-0.2 0 0 0-0.1 0 0 0-0.1v-3.4q0-0.1 0-0.1 0-0.1 0-0.1 0-0.1 0-0.2c0.2-0.5 0.7-1 1.4-1h31.1q0 0.1 0 0.2c0.6 1.8 1.7 4.2 4.3 6z"/><path class="i" d="m594.1 410.8h-0.8v-6.2h0.8z"/><path class="i" d="m591.5 410.8h-0.7v-6.2h0.7z"/><path class="i" d="m588.5 410.8h-0.8v-6.2h0.8z"/><path class="i" d="m583.8 410.8h-0.8v-6.2h0.8z"/><path class="i" d="m578.8 410.8h-0.7v-6.2h0.7z"/><path class="i" d="m571.2 410.8h-0.7v-6.2h0.7z"/><path class="i" d="m564.2 410.8h-0.8v-6.2h0.8z"/><path class="i" d="m557.8 410.8h-0.7v-6.2h0.7z"/><path class="i" d="m596.5 410.8h-0.8v-6.2h0.8z"/><path class="i" d="m598.1 410.8h-0.8v-6.2h0.8z"/><path class="i" d="m599.6 410.8h-0.7v-6.2h0.7z"/><path class="i" d="m600.8 404.7v6q-0.1 0.1-0.3 0.1h-0.5v-6.2h0.5q0.2 0 0.3 0.1z"/><path class="i" d="m601.8 405.2v5c-0.1 0.2-0.4 0.4-0.7 0.5v-6c0.3 0.1 0.6 0.3 0.7 0.5z"/><path class="u" d="m605.5 400v3.5q0 0.4-0.3 0.7c-0.1 0.2-0.4 0.4-0.7 0.5q-0.1 0.1-0.3 0.1-0.1 0-0.3 0h-66.1q-0.4 0-0.8-0.2c-0.4-0.2-0.7-0.5-0.8-0.9q0-0.1 0-0.1 0-0.1 0-0.1 0 0 0 0v-3.5q0 0 0-0.1 0 0 0-0.1c0.1-0.6 0.8-1.1 1.6-1.1h66.1q0.2 0 0.3 0 0.2 0 0.3 0c0.3 0.1 0.6 0.3 0.7 0.5q0.3 0.4 0.3 0.8z"/><path class="i" d="m573 404.8h-35.4q-0.3 0-0.7-0.2c-0.3-0.2-0.6-0.5-0.7-0.9q0-0.1 0-0.1 0-0.1 0-0.1 0 0 0 0v-3.5q0 0 0-0.1 0 0 0-0.1 0-0.1 0-0.1c0.2-0.6 0.7-1 1.4-1h31.1c0.5 1.7 1.6 4.1 4.1 5.9q0.1 0.1 0.2 0.2z"/><path class="i" d="m597.5 404.8h-0.8v-6.1h0.8z"/><path class="i" d="m594.9 404.8h-0.7v-6.1h0.7z"/><path class="i" d="m591.9 404.8h-0.8v-6.1h0.8z"/><path class="i" d="m587.2 404.8h-0.8v-6.1h0.8z"/><path class="i" d="m582.3 404.8h-0.8v-6.1h0.8z"/><path class="i" d="m574.7 404.8h-0.8v-6.1h0.8z"/><path class="i" d="m567.6 404.8h-0.8v-6.1h0.8z"/><path class="i" d="m561.2 404.8h-0.7v-6.1h0.7z"/><path class="i" d="m599.9 404.8h-0.8v-6.1h0.8z"/><path class="i" d="m601.5 404.8h-0.8v-6.1h0.8z"/><path class="i" d="m603 404.8h-0.7v-6.1h0.7z"/><path class="i" d="m604.2 398.7v6.1q-0.1 0-0.3 0h-0.5v-6.1h0.5q0.2 0 0.3 0z"/><path class="i" d="m605.2 399.2v5c-0.1 0.2-0.4 0.4-0.7 0.5v-6c0.3 0.1 0.6 0.3 0.7 0.5z"/><path class="u" d="m607.1 393.9v3.4c0 0.3-0.1 0.5-0.3 0.8q0 0 0 0.1-0.2 0.1-0.5 0.3-0.1 0-0.2 0.1-0.1 0-0.3 0.1-0.1 0-0.2 0 0 0-0.1 0h-66.1c-0.8 0-1.5-0.5-1.6-1.2q0 0 0-0.1v-3.6c0-0.7 0.6-1.2 1.4-1.2q0.1-0.1 0.2-0.1h66.1q0.1 0 0.1 0.1 0.1 0 0.2 0 0.2 0 0.3 0 0.5 0.2 0.7 0.5c0.2 0.2 0.3 0.5 0.3 0.8z"/><path class="i" d="m574.6 398.7h-35.4c-0.7 0-1.2-0.4-1.4-1q0-0.1 0-0.2 0 0 0-0.1v-3.6c0-0.7 0.6-1.2 1.2-1.2q0.1-0.1 0.2-0.1h31.1q0 0.1 0 0.1c0.5 1.8 1.6 4.2 4.3 6.1z"/><path class="i" d="m599.1 398.7h-0.8v-6.2h0.8z"/><path class="i" d="m596.5 398.7h-0.7v-6.2h0.7z"/><path class="i" d="m593.5 398.7h-0.8v-6.2h0.8z"/><path class="i" d="m588.8 398.7h-0.8v-6.2h0.8z"/><path class="i" d="m583.8 398.7h-0.7v-6.2h0.7z"/><path class="i" d="m576.3 398.7h-0.8v-6.2h0.8z"/><path class="i" d="m569.1 398.7h-0.7v-6.2h0.7z"/><path class="i" d="m562.8 398.7h-0.7v-6.2h0.7z"/><path class="i" d="m601.5 398.7h-0.8v-6.2h0.8z"/><path class="i" d="m603.1 398.7h-0.8v-6.2h0.8z"/><path class="i" d="m604.6 398.7h-0.7v-6.2h0.7z"/><path class="i" d="m605.8 392.6v6.1q-0.2 0-0.3 0h-0.5v-6.2h0.5q0.1 0 0.3 0z"/><path class="i" d="m606.8 393.1v5q-0.2 0.3-0.7 0.5v-6q0.5 0.2 0.7 0.5z"/><path class="u" d="m602.3 387.8v3.4q0 0.4-0.3 0.8-0.3 0.3-0.8 0.5-0.1 0-0.3 0 0 0-0.1 0 0 0.1 0 0.1-0.1 0-0.1 0 0 0 0 0h-66.2c-0.8 0-1.5-0.6-1.6-1.3q0-0.1 0-0.1v-3.4q0-0.1 0-0.1 0 0 0-0.1c0.1-0.5 0.6-1 1.2-1.2q0 0 0.1 0 0.1 0 0.3 0h66.2q0 0 0.1 0 0 0 0 0 0.1 0 0.1 0 0.2 0 0.3 0.1 0.5 0.2 0.8 0.5 0.3 0.3 0.3 0.8z"/><path class="i" d="m569.8 392.6l-35.5-0.1c-0.7 0-1.4-0.5-1.4-1.2q0-0.1 0-0.1v-3.4q0-0.1 0-0.1 0 0 0-0.1c0.1-0.6 0.5-1 1.1-1.2q0.1 0 0.1 0 0.1 0 0.2 0h31.1q0 0 0 0c0.5 1.9 1.7 4.3 4.3 6.1q0.1 0.1 0.1 0z"/><path class="i" d="m594.2 392.6l-0.8-0.1v-6.1h0.8z"/><path class="i" d="m591.6 392.6l-0.7-0.1v-6.1h0.7z"/><path class="i" d="m588.6 392.6l-0.7-0.1v-6.1h0.7z"/><path class="i" d="m583.9 392.6l-0.7-0.1v-6.1h0.7z"/><path class="i" d="m579 392.6l-0.8-0.1v-6.1h0.8z"/><path class="i" d="m571.4 392.6l-0.7-0.1v-6.1h0.7z"/><path class="i" d="m564.3 392.6l-0.7-0.1v-6.1h0.7z"/><path class="i" d="m557.9 392.6l-0.7-0.1v-6.1h0.7z"/><path class="i" d="m596.6 392.6l-0.7-0.1v-6.1h0.7z"/><path class="i" d="m598.2 392.6l-0.7-0.1v-6.1h0.7z"/><path class="i" d="m599.8 392.6l-0.8-0.1v-6.1h0.8z"/><path class="i" d="m600.9 386.4v6.1q-0.1 0.1-0.2 0.1h-0.5v-6.2h0.5q0.1 0 0.2 0z"/><path class="i" d="m602 387v5q-0.3 0.3-0.8 0.5v-6q0.5 0.2 0.8 0.5z"/><path class="u" d="m602.1 381.7v3.4c0 0.3-0.1 0.6-0.3 0.8q0 0-0.1 0.1c-0.2 0.2-0.4 0.3-0.6 0.4q-0.1 0-0.3 0 0 0 0 0-0.1 0-0.3 0h-66.1q-0.2 0-0.2 0-0.1 0-0.1 0c-0.7-0.1-1.2-0.5-1.3-1.1q0 0 0-0.1 0 0 0-0.1v-3.4q0-0.1 0-0.1 0-0.1 0-0.1c0.1-0.7 0.8-1.2 1.6-1.2h66.1q0.1 0 0.1 0 0.1 0 0.1 0 0 0 0 0 0 0 0 0 0.1 0 0.1 0 0.1 0.1 0.3 0.1 0.1 0 0.2 0.1 0.3 0.1 0.5 0.3 0 0.1 0 0.1c0.2 0.2 0.3 0.5 0.3 0.8z"/><path class="i" d="m569.6 386.4h-35.4q0 0-0.1 0 0 0-0.1 0c-0.6 0-1.1-0.5-1.2-1.1q0 0 0-0.1 0 0 0-0.1v-3.4q0-0.1 0-0.1 0-0.1 0-0.1 0-0.1 0-0.2c0.2-0.6 0.7-1 1.4-1h31.1q0 0.1 0 0.2c0.6 1.8 1.7 4.1 4.3 5.9q0 0 0 0z"/><path class="i" d="m594.1 386.4h-0.8v-6.1h0.8z"/><path class="i" d="m591.5 386.4h-0.7v-6.1h0.7z"/><path class="i" d="m588.5 386.4h-0.8v-6.1h0.8z"/><path class="i" d="m583.8 386.4h-0.8v-6.1h0.8z"/><path class="i" d="m578.8 386.4h-0.7v-6.1h0.7z"/><path class="i" d="m571.2 386.4h-0.7v-6.1h0.7z"/><path class="i" d="m564.2 386.4h-0.8v-6.1h0.8z"/><path class="i" d="m557.8 386.4h-0.7v-6.1h0.7z"/><path class="i" d="m596.5 386.4h-0.8v-6.1h0.8z"/><path class="i" d="m598.1 386.4h-0.8v-6.1h0.8z"/><path class="i" d="m599.6 386.4h-0.7v-6.1h0.7z"/><path class="i" d="m600.8 380.3v6.1q-0.1 0-0.3 0h-0.5v-6.1h0.5q0.2 0 0.3 0z"/><path class="i" d="m601.8 380.9v5c-0.1 0.2-0.4 0.4-0.7 0.5v-6c0.3 0.1 0.6 0.3 0.7 0.5z"/><path class="u" d="m605.5 375.7v3.5q0 0.4-0.3 0.7c-0.1 0.2-0.4 0.4-0.7 0.5q-0.1 0-0.3 0.1-0.1 0-0.3 0h-66.1q-0.4 0-0.8-0.2c-0.4-0.1-0.7-0.5-0.8-0.9q0-0.1 0-0.1 0 0 0-0.1 0 0 0 0v-3.5q0-0.1 0-0.1 0-0.1 0-0.1c0.1-0.6 0.8-1.1 1.6-1.1h66.1q0.2 0 0.3 0 0.2 0 0.3 0.1c0.3 0 0.6 0.2 0.7 0.5q0.3 0.3 0.3 0.7z"/><path class="i" d="m573 380.5h-35.4c-0.2 0-0.5-0.1-0.7-0.2-0.3-0.1-0.6-0.5-0.7-0.9q0-0.1 0-0.1 0 0 0-0.1 0 0 0 0v-3.5q0-0.1 0-0.1 0-0.1 0-0.1 0-0.1 0-0.1c0.2-0.6 0.7-1 1.4-1h31.1c0.5 1.7 1.6 4.1 4.1 5.9q0.1 0.1 0.2 0.2z"/><path class="i" d="m597.5 380.5h-0.8v-6.1h0.8z"/><path class="i" d="m594.9 380.5h-0.7v-6.1h0.7z"/><path class="i" d="m591.9 380.5h-0.8v-6.1h0.8z"/><path class="i" d="m587.2 380.5h-0.8v-6.1h0.8z"/><path class="i" d="m582.3 380.5h-0.8v-6.1h0.8z"/><path class="i" d="m574.7 380.5h-0.8v-6.1h0.8z"/><path class="i" d="m567.6 380.5h-0.8v-6.1h0.8z"/><path class="i" d="m561.2 380.5h-0.7v-6.1h0.7z"/><path class="i" d="m599.9 380.5h-0.8v-6.1h0.8z"/><path class="i" d="m601.5 380.5h-0.8v-6.1h0.8z"/><path class="i" d="m603 380.5h-0.7v-6.1h0.7z"/><path class="i" d="m604.2 374.4v6.1q-0.1 0-0.3 0h-0.5v-6.1h0.5q0.2 0 0.3 0z"/><path class="i" d="m605.2 375v4.9c-0.1 0.2-0.4 0.4-0.7 0.5v-5.9c0.3 0 0.6 0.2 0.7 0.5z"/><path class="u" d="m610.9 369.6v3.4q0 0.4-0.2 0.8-0.1 0-0.1 0-0.2 0.2-0.4 0.3-0.1 0.1-0.2 0.1 0 0-0.1 0.1-0.1 0-0.3 0-0.1 0.1-0.3 0.1h-66.1c-0.8 0-1.5-0.5-1.6-1.2q0-0.1 0-0.1 0 0 0-0.1v-3.4q0-0.1 0-0.1c0-0.7 0.6-1.2 1.4-1.3q0.1 0 0.2 0h66.1q0.2 0 0.3 0.1 0.2 0 0.3 0c0.3 0.1 0.5 0.2 0.7 0.4q0 0.1 0.1 0.1 0.2 0.3 0.2 0.8z"/><path class="i" d="m578.5 374.4h-35.5c-0.7 0-1.2-0.5-1.3-1q-0.1-0.1-0.1-0.2 0-0.1 0-0.1 0 0 0-0.1v-3.4q0-0.1 0-0.1c0-0.7 0.6-1.2 1.2-1.3q0.1 0 0.2 0h31.1c0.5 1.8 1.7 4.3 4.4 6.2z"/><path class="i" d="m602.9 374.4h-0.8v-6.2h0.8z"/><path class="i" d="m600.3 374.4h-0.7v-6.2h0.7z"/><path class="i" d="m597.3 374.4h-0.8v-6.2h0.8z"/><path class="i" d="m592.6 374.4h-0.7v-6.2h0.7z"/><path class="i" d="m587.7 374.4h-0.8v-6.2h0.8z"/><path class="i" d="m580.1 374.4h-0.8v-6.2h0.8z"/><path class="i" d="m573 374.4h-0.8v-6.2h0.8z"/><path class="i" d="m566.6 374.4h-0.7v-6.2h0.7z"/><path class="i" d="m605.3 374.4h-0.8v-6.2h0.8z"/><path class="i" d="m606.9 374.4h-0.8v-6.2h0.8z"/><path class="i" d="m608.4 374.4h-0.7v-6.2h0.7z"/><path class="i" d="m609.6 368.3v6q-0.1 0.1-0.3 0.1h-0.4v-6.2h0.4q0.2 0 0.3 0.1z"/><path class="i" d="m610.7 368.8v5q-0.3 0.3-0.8 0.5v-6q0.5 0.2 0.8 0.5z"/><path class="u" d="m602.3 363.4v3.5c0 0.3-0.1 0.5-0.3 0.7q-0.3 0.4-0.8 0.5-0.1 0.1-0.3 0.1 0 0-0.1 0 0 0-0.1 0 0 0 0 0 0 0 0 0h-66.2c-0.6 0-1.1-0.2-1.3-0.6-0.2-0.2-0.3-0.4-0.3-0.6q0-0.1 0-0.1v-3.5q0 0 0 0c0-0.6 0.5-1.1 1.1-1.2q0.2-0.1 0.5-0.1h66.2q0 0 0 0 0 0 0.1 0 0 0 0.1 0 0.2 0.1 0.3 0.1 0.1 0 0.1 0 0.3 0.2 0.5 0.3 0 0 0 0.1 0 0 0 0 0.1 0 0.2 0.1c0.2 0.2 0.3 0.5 0.3 0.7z"/><path class="i" d="m569.8 368.2h-35.5c-0.5 0-0.9-0.2-1.1-0.6q-0.3-0.2-0.3-0.6 0-0.1 0-0.1v-3.5q0 0 0 0c0-0.6 0.5-1.2 1.2-1.3q0.1 0 0.2 0h31.1q0 0.1 0 0.1c0.6 1.9 1.7 4.2 4.3 6q0.1 0 0.1 0z"/><path class="i" d="m594.2 368.2h-0.8v-6.1h0.8z"/><path class="i" d="m591.6 368.2h-0.7v-6.1h0.7z"/><path class="i" d="m588.6 368.2h-0.7v-6.1h0.7z"/><path class="i" d="m583.9 368.2h-0.7v-6.1h0.7z"/><path class="i" d="m579 368.2h-0.8v-6.1h0.8z"/><path class="i" d="m571.4 368.2h-0.7v-6.1h0.7z"/><path class="i" d="m564.3 368.2h-0.7v-6.1h0.7z"/><path class="i" d="m557.9 368.2h-0.7v-6.1h0.7z"/><path class="i" d="m596.6 368.2h-0.7v-6.1h0.7z"/><path class="i" d="m598.2 368.2h-0.7v-6.1h0.7z"/><path class="i" d="m599.8 368.2h-0.8v-6.1h0.8z"/><path class="i" d="m600.9 362.1v6.1q-0.1 0-0.2 0h-0.5v-6.1h0.5q0.1 0 0.2 0z"/><path class="i" d="m602 362.7v4.9q-0.3 0.4-0.8 0.5v-5.9q0.5 0.2 0.8 0.5z"/><path class="u" d="m607.1 357.4v3.5c0 0.3-0.1 0.5-0.3 0.8q-0.2 0.3-0.7 0.5-0.1 0-0.3 0-0.2 0-0.3 0h-66.1q-0.4 0-0.8-0.1c-0.4-0.2-0.8-0.6-0.8-1.1q0 0 0 0 0-0.1 0-0.1v-3.5q0 0 0 0c0-0.7 0.6-1.2 1.4-1.3q0.1 0 0.2 0h66.1q0.1 0 0.3 0 0.2 0.1 0.3 0.1 0.5 0.2 0.7 0.5c0.2 0.2 0.3 0.5 0.3 0.7z"/><path class="i" d="m574.6 362.2h-35.4q-0.3 0-0.7-0.1c-0.4-0.2-0.7-0.6-0.7-1.1q0 0 0 0 0-0.1 0-0.1v-3.5q0 0 0 0c0-0.7 0.6-1.2 1.2-1.3q0.1 0 0.2 0h31.1q0 0 0 0c0.5 1.8 1.6 4.2 4.1 6q0.1 0.1 0.2 0.1z"/><path class="i" d="m599.1 362.2h-0.8v-6.1h0.8z"/><path class="i" d="m596.5 362.2h-0.7v-6.1h0.7z"/><path class="i" d="m593.5 362.2h-0.8v-6.1h0.8z"/><path class="i" d="m588.8 362.2h-0.8v-6.1h0.8z"/><path class="i" d="m583.8 362.2h-0.7v-6.1h0.7z"/><path class="i" d="m576.3 362.2h-0.8v-6.1h0.8z"/><path class="i" d="m569.1 362.2h-0.7v-6.1h0.7z"/><path class="i" d="m562.8 362.2h-0.7v-6.1h0.7z"/><path class="i" d="m601.5 362.2h-0.8v-6.1h0.8z"/><path class="i" d="m603.1 362.2h-0.8v-6.1h0.8z"/><path class="i" d="m604.6 362.2h-0.7v-6.1h0.7z"/><path class="i" d="m605.8 356.1v6.1q-0.2 0-0.3 0h-0.5v-6.1h0.5q0.1 0 0.3 0z"/><path class="i" d="m606.8 356.7v5q-0.2 0.3-0.7 0.5v-6q0.5 0.2 0.7 0.5z"/><path class="u" d="m609.2 351.3v3.5c0 0.3-0.1 0.5-0.3 0.7q-0.3 0.4-0.7 0.5-0.2 0.1-0.3 0.1-0.1 0-0.1 0-0.1 0-0.1 0 0 0 0 0-0.1 0-0.1 0h-66.2c-0.8 0-1.5-0.5-1.6-1.2q0-0.1 0-0.1v-3.5q0 0 0 0c0.1-0.7 0.8-1.3 1.6-1.3h66.2q0.1 0 0.3 0 0.1 0 0.3 0.1 0.4 0.2 0.7 0.5c0.2 0.2 0.3 0.5 0.3 0.7z"/><path class="i" d="m576.7 356.1h-35.4c-0.8 0-1.4-0.5-1.5-1.2q0-0.1 0-0.1v-3.5q0 0 0 0c0.1-0.7 0.7-1.3 1.5-1.3h31c0.5 1.8 1.7 4.3 4.4 6.1q0 0 0 0z"/><path class="i" d="m601.1 356.1h-0.7v-6.1h0.7z"/><path class="i" d="m598.6 356.1h-0.8v-6.1h0.8z"/><path class="i" d="m595.5 356.1h-0.7v-6.1h0.7z"/><path class="i" d="m590.9 356.1h-0.8v-6.1h0.8z"/><path class="i" d="m585.9 356.1h-0.7v-6.1h0.7z"/><path class="i" d="m578.3 356.1h-0.7v-6.1h0.7z"/><path class="i" d="m571.2 356.1h-0.7v-6.1h0.7z"/><path class="i" d="m564.9 350v6.1h-0.8v-6.1z"/><path class="i" d="m603.5 356.1h-0.7v-6.1h0.7z"/><path class="i" d="m605.1 356.1h-0.7v-6.1h0.7z"/><path class="i" d="m606.7 356.1h-0.7v-6.1h0.7z"/><path class="i" d="m607.9 350v6.1q-0.2 0-0.3 0h-0.5v-6.1h0.5q0.1 0 0.3 0z"/><path class="i" d="m608.9 350.6v4.9q-0.3 0.4-0.7 0.5v-5.9q0.4 0.2 0.7 0.5z"/><path class="f" d="m588.2 315.1c0 0-3.5 4.8-6.7 4.9-3.1 0.1-8-2.3-8-2.3 0 0-2.9-6.4-0.9-8.9 0 0 2-0.9 4 0.6q0.6 0.4 1.1 1c0.5 0.6 1.1 1 1.7 1.2 2.3 0.7 5-1 6 0.6 0.6 0.9 1.2 1.6 1.7 2 0.7 0.6 1.1 0.9 1.1 0.9z"/><path class="f" d="m542.9 350.1c0 0 12.3-29.5 34.4-30.1 0 0 20.4 2.3 21.5 30.1z"/><path class="e" d="m571.2 320.9c0 0 8.9 1.9 11.6 0.8 0 0 0.5-3.7-3.3-3.2-2.5 0.4-4.2-0.8-5.2-1.3-1.4-0.7-3.4 2.2-3.1 3.7z"/><path class="v" d="m579 315.4c-0.6 0.4-2.4-6-2.4-6q0.6 0.4 1.1 1c0.5 0.6 1.1 1 1.7 1.2 0 0.2 0.1 3.4-0.4 3.8z"/><path class="v" d="m587.1 314.2c-0.1 0.1-4.2 2.6-4.7 2.6-0.6 0 3-4.6 3-4.6 0.6 0.9 1.2 1.6 1.7 2z"/><path class="v" d="m554.9 341.8c-0.2-0.1 8.7-13 11.2-13.1 2.4-0.1 7.9 2.8 11.9 3.2 4 0.4 7.9-0.7 8.7 1.6 0.7 2.3 2.8 10.6 1.5 12-1.3 1.3-28.4 0.5-33.3-3.7z"/><path class="w" d="m563.3 386.4q0 0 0 0-0.2 3.2-1 6.1 0 0.1 0 0.1-0.1 0.4-0.2 0.8-0.8 2.7-2.2 5.3c-1.1 2.1-2.5 4.1-4.2 5.9q0 0.1-0.1 0.2c-2.1 2.3-4.5 4.3-7.3 6q-0.8 0.5-1.8 1-0.6 0.3-1.2 0.6c-0.4 0.2-0.9 0.4-1.3 0.7-1.1 0.7-2.6 1.3-4.2 1.7v-2.7q0 0 0-0.1 0 0 0.1-0.1 0-0.1 0-0.1c0.2-0.6 0.7-1 1.4-1h-7.1c-0.7 0-1.2-0.5-1.4-1q0-0.1 0-0.2 0 0 0-0.1 0 0 0-0.1v-3.4q0-0.1 0-0.1 0 0 0-0.1 0-0.1 0-0.2c0.2-0.5 0.7-1 1.4-1h2.7c-0.3-0.2-0.6-0.5-0.7-0.9q0-0.1 0-0.1 0-0.1 0-0.1 0 0 0 0v-3.5q0 0 0-0.1 0 0 0-0.1 0-0.1 0-0.1c0.2-0.6 0.7-1 1.4-1h1.6c-0.7 0-1.2-0.4-1.4-1q0-0.1 0-0.2 0 0 0-0.1v-3.6c0-0.7 0.6-1.2 1.2-1.2h-4.7c-0.7 0-1.4-0.6-1.4-1.3q0-0.1 0-0.1v-3.4q0-0.1 0-0.1 0 0 0-0.1c0.1-0.6 0.5-1 1.1-1.2-0.6 0-1.1-0.5-1.2-1.1q0 0 0-0.1 0 0 0-0.1v-3.4q0-0.1 0-0.1 0-0.1 0-0.1 0-0.1 0-0.2c0.2-0.6 0.7-1 1.4-1h2.7c-0.3-0.1-0.6-0.5-0.7-0.9q0-0.1 0-0.1 0 0 0-0.1 0 0 0 0v-3.5q0-0.1 0-0.1 0-0.1 0-0.1 0-0.1 0-0.1c0.2-0.6 0.7-1 1.4-1h5.4c-0.7 0-1.2-0.5-1.3-1q-0.1-0.1-0.1-0.2 0-0.1 0-0.1 0 0 0-0.1v-3.4q0-0.1 0-0.1c0-0.7 0.6-1.2 1.2-1.3h-8.5c-0.5 0-0.9-0.2-1.1-0.6l0.8-5.4 0.1-0.1 1.2-7.7q2.2 0.3 4.4 0.9 0.1 0 0.3 0 1.2 0.4 2.4 0.8 0.1 0 0.1 0c3.7 1.4 7.2 3.4 10.2 6q0.1 0.1 0.2 0.1c1.6 1.4 3 3 4.3 4.7q0.4 0.5 0.7 1 0.2 0.1 0.3 0.3 0.6 0.9 1.1 1.8 1.2 2.1 2.1 4.4c0.8 1.9 1.3 3.9 1.6 5.9q0 0.1 0 0.2 0.5 3 0.3 5.9z"/><path class="g" d="m495 398.8c-8.7-15.6-3-35.2 12.8-43.8 15.7-8.6 35.5-2.9 44.2 12.7 8.6 15.6 2.9 35.2-12.8 43.8-15.7 8.6-35.5 2.9-44.2-12.7z"/><path class="u" d="m537.9 412.2q-0.6 0.3-1.2 0.7-0.2 0.1-0.4 0.2-0.5 0.3-1 0.5c-15.5 7.5-34.4 1.7-42.8-13.4-8-14.5-3.7-32.4 9.5-41.8q1.6-1.1 3.3-2.1 0.6-0.3 1.3-0.6 0.6-0.3 1.2-0.6 1.9-0.8 3.9-1.4c1.9-0.6 3.9-1 5.9-1.2 6.1-0.7 12.3 0.5 17.7 3.1 5.8 2.8 10.8 7.4 14.2 13.4 8.4 15.2 3.2 34.2-11.6 43.2z"/><path fill-rule="evenodd" class="i" d="m521.2 413.9c-2.7 0-5.4-0.4-8.1-1.2-7.5-2.1-13.7-7-17.5-13.8-3.7-6.8-4.6-14.6-2.4-22 2.1-7.4 7.1-13.6 13.9-17.3 14.1-7.7 31.9-2.6 39.6 11.4 7.8 14 2.6 31.6-11.4 39.3-4.4 2.4-9.2 3.6-14.1 3.6zm-0.1-57.1c-4.6 0-9.3 1.1-13.6 3.5-6.6 3.6-11.4 9.6-13.5 16.8-2.2 7.3-1.3 14.9 2.3 21.4 3.7 6.6 9.7 11.4 17 13.5 7.3 2.1 15 1.2 21.6-2.4 13.7-7.5 18.7-24.6 11.1-38.2-5.1-9.3-14.9-14.6-24.9-14.6z"/><path class="i" d="m535.5 387.8q-0.1-0.3-0.2-0.5-0.8-1.7-2-2.8-1.3-1.2-3.1-1.8-1.7-0.6-3.9-0.8-2.2-0.1-4.7 0-1.6 0-2.8-0.1-1.1-0.1-1.8-0.4-0.8-0.3-1.3-0.8-0.5-0.6-0.8-1.3-0.4-0.9-0.4-1.6-0.1-0.8 0.2-1.5 0.3-0.7 0.9-1.2 0.7-0.6 1.7-1 1.9-0.8 3.5 0 1.7 0.8 2.7 3.3l6.7-2.7q-0.9-2.1-2.2-3.5-1.3-1.5-2.9-2.3-1.7-0.8-3.6-0.9-1.9-0.1-4 0.4l-1.9-4.6-3.7 1.5 1.9 4.5q-2 1-3.4 2.4-1.4 1.4-2.1 2.9-0.7 1.6-0.8 3.3 0 1.8 0.7 3.6 0.9 2.1 2.2 3.3 1.3 1.2 3.1 1.8 1.8 0.6 4 0.7 2.2 0.1 4.7 0 1.5-0.1 2.6 0 1.1 0.1 1.9 0.4 0.8 0.3 1.3 0.9 0.5 0.6 0.9 1.5 0.3 0.7 0.3 1.5 0 0.8-0.3 1.5-0.4 0.7-1.1 1.3-0.7 0.6-1.7 1.1-1 0.3-2 0.5-1 0.1-2-0.2-0.9-0.3-1.8-1.2-0.8-0.8-1.4-2.3l-6.6 2.7q1 2.5 2.6 4 1.6 1.5 3.4 2.1 1.9 0.6 3.9 0.5 2 0 4-0.6l1.7 4.2 3.7-1.5-1.7-4.2q2-1 3.4-2.3 1.3-1.3 2-2.7 0.1-0.1 0.1-0.2 0.8-1.6 0.8-3.3 0.1-1.8-0.7-3.6z"/><path class="x" d="m91 416.5h18.3c1-0.8-0.7-2.7-2.4-2.8-0.7 0-1.7 0.1-2.8 0.3-0.2-3.3-1.7-18.2-7.1-17.6-6.1 0.7 0 6.6 1.7 10.1 1.3 2.6 2.7 6.3 3.3 8q-0.8 0.2-1.6 0.3c-0.8-2.4-3.8-10.7-7.6-10.2-4.5 0.5-2.7 3.8 0.5 5.8 2.3 1.5 5.2 3.5 6.5 4.5-1.1 0.2-2.3 0.3-3.5 0.3-3.2-0.1-4.7 0.8-5.3 1.3z"/></g></svg>