<svg xmlns="http://www.w3.org/2000/svg" width="330" height="379" fill="none"><path fill="#EC9171" d="M229.204 207.297s-.457.596-.111 1.705c-.36.444-.513.943-.513.943s-.873.263-1.011 1.095c-.208.097-.624.554-.624.554s-.721.222-.596 1.026c-.236-.125-1.83-.36-1.455-.943.79-1.219 3.007-5.669 3.007-5.669z"/><path stroke="#24293A" stroke-linecap="round" stroke-miterlimit="10" stroke-width="10" d="m209.453 223.57-1.455.346a1.595 1.595 0 0 1-1.885-1.233l-.541-2.564a1.6 1.6 0 0 1 1.234-1.899l1.455-.347a1.61 1.61 0 0 1 1.899 1.234l.527 2.564a1.58 1.58 0 0 1-1.234 1.899Z"/><path fill="#179BDD" d="M173.956 181.406a24 24 0 0 1 3.327-.333 16 16 0 0 1 2.162.083.6.6 0 0 1 .069-.083c.749-1.538 2.246-2.855 3.618-3.493 1.746-.817 3.964-1.205 5.863-.693 1.497.25 2.827.901 3.992 1.941.346.319.693.679 1.011 1.081.693.873 1.262 1.927 1.497 2.952l2.26-2.633-.25.901 7.332 2.037-2.675-7.11c-.582-.527-2.758.18-3.298-.361-1.151-1.122-3.466-1.233-4.699-2.051-1.428-.929-2.038-1.774-4.075-1.663-1.248.083-2.398-.291-3.756.235-3.881 1.456-6.82 4.436-10.216 7.485z"/><path fill="#002A7B" d="m201.372 184.275-3.423-.762s-9.356-3.119-9.98-3.05-4.712-7.678.832-9.009c8.663-2.079 13.306 2.01 11.047 5.932z"/><path fill="#24293A" fill-rule="evenodd" d="m198.378 233.078 1.428-1.053a1.92 1.92 0 0 1 2.717.402 1.94 1.94 0 0 1-.402 2.73l-1.428 1.054a1.92 1.92 0 0 1-2.717-.402 1.94 1.94 0 0 1 .402-2.731m2.052-.208-1.428 1.054a.89.89 0 0 0-.18 1.261.9.9 0 0 0 1.247.18l1.428-1.053a.898.898 0 0 0-1.067-1.442M202.925 229.835l1.067-1.428c.652-.845 1.885-1.026 2.731-.374a1.95 1.95 0 0 1 .388 2.73l-1.081 1.428a1.947 1.947 0 0 1-2.731.374 1.945 1.945 0 0 1-.374-2.73m1.913-.79-1.068 1.427a.886.886 0 0 0 .167 1.248.903.903 0 0 0 1.261-.167l1.067-1.427a.89.89 0 0 0-.18-1.248.885.885 0 0 0-1.247.167M206.376 225.427l.596-1.677a1.94 1.94 0 0 1 2.482-1.178 1.93 1.93 0 0 1 1.192 2.481l-.583 1.677a1.963 1.963 0 0 1-2.495 1.192 1.96 1.96 0 0 1-1.192-2.495m1.594-1.317-.596 1.677a.897.897 0 0 0 .541 1.137.905.905 0 0 0 1.15-.541l.583-1.677a.895.895 0 0 0-.541-1.15.9.9 0 0 0-1.137.554" clip-rule="evenodd"/><path fill="#24293A" d="M201.291 232.399a.75.75 0 0 0-.153 1.053.744.744 0 0 0 1.054.167l1.94-1.442a.75.75 0 0 0 .153-1.053.743.743 0 0 0-1.054-.166zM205.53 228.352a.767.767 0 0 0 .152 1.067.753.753 0 0 0 1.054-.153l1.455-1.912a.77.77 0 0 0-.139-1.068.77.77 0 0 0-1.067.153z"/><path fill="#03318B" d="m166.11 191.33 9.828 6.833 1.843 1.331 1.012.721 2.675-1.026 10.811-9.841 3.756-4.99.236-.319.43-.568c.138-.166.637-.998.582-.776l.152-.028.79-.111.416-2.259-.734-1.386c-.333-.291.36-2.301.041-2.606-.236-.222.735-.513.499-.734-1.136-1.095-2.218-2.149-3.437-2.939a8.078 8.078 0 0 0-.61-.374q-.36-.194-.749-.374a1 1 0 0 0-.124-.042.4.4 0 0 0-.139-.055 5 5 0 0 0-.402-.153l-.097-.027a7 7 0 0 0-.804-.208l-.152-.028q-.084-.014-.181-.028a6 6 0 0 0-.402-.041.7.7 0 0 0-.138-.014h-.014a1 1 0 0 0-.18-.014h-.194a1.4 1.4 0 0 0-.194-.014q-.263 0-.527.028a1.4 1.4 0 0 0-.208.014q-.111 0-.222.013l-.166.028-.277.028-.139.028-.138.027q-.111.014-.222.042-.098.013-.194.042a2 2 0 0 0-.208.041 15 15 0 0 0-.513.125l-.194.055a2 2 0 0 0-.222.07 7 7 0 0 0-.388.124 2 2 0 0 0-.222.07l-.138.055a3 3 0 0 0-.208.069 1 1 0 0 0-.167.07c-3.756 1.413-8.219 4.948-12.793 9.66l-6.639 7.277z"/><path fill="#002A7B" d="m177.781 199.508 1.012.707 2.661-.984 10.922-9.647 3.881-4.976.042-.43q.097.056.208.111.444.236.901.402.125-.888.305-1.774.25-1.345.596-2.675c.346-1.317-.416-4.062.111-5.295 1.136-2.745 3.936-3.784 6.362-5.849q.096-.084.194-.153l-1.553-2.689-4.56 9.439-.624 1.276-2.869-4.297a2 2 0 0 1-.124-.083 10.817 10.817 0 0 0-1.276-.68l-.138-.055-.139-.055a5 5 0 0 0-.402-.153l-.111-.028a8 8 0 0 0-.831-.208l-.167-.027a.5.5 0 0 0-.166-.028 3 3 0 0 0-.416-.055 1 1 0 0 0-.166-.014h-.014a1 1 0 0 0-.166-.014h-.208a2 2 0 0 0-.208-.014q-.264 0-.541.028a2 2 0 0 0-.221.014 2 2 0 0 1-.222.013l-.167.028a3 3 0 0 0-.304.042.7.7 0 0 0-.139.014l-.139.027a2 2 0 0 1-.235.042q-.098.027-.194.041l-.208.056a13 13 0 0 0-.749.18 2 2 0 0 1-.221.069 8.779 8.779 0 0 0-.638.208.7.7 0 0 1-.139.042l-.221.083a2 2 0 0 0-.167.069c4.02-.111 7.249 3.59 7.665 7.693q.028.263.042.527c.041.887-10.299 12.474-16.259 19.072"/><path fill="#002A7B" d="M197.948 174.198c-1.109-.596-3.77-.665-3.354 1.109.416 1.802.416 4.117-.555 6.986-.568 1.677-1.316 2.675-2.536 4.269l1.663 2.772 4.741-3.673s-.181-.236.79-3.645c.97-3.424-.749-7.818-.749-7.818"/><path fill="#D1735D" d="M195.176 171.482c-1.663.915-1.455 2.398-.416 4.269.915 1.635 2.897 2.259 4.228.928 1.317-1.316 1.317-3.465 0-4.795-1.331-1.331-2.176-1.317-3.812-.402"/><path fill="#24293A" d="M229.44 198.593a23.45 23.45 0 0 1-2.439 10.423q-.555 1.095-1.206 2.135l-.139.221a33 33 0 0 1-.513.749q-.498.707-1.053 1.372c-4.297 5.198-10.784 8.511-18.06 8.511-12.932 0-23.411-10.479-23.411-23.411s10.479-23.411 23.411-23.411 23.41 10.479 23.41 23.411"/><path fill="#179BDD" d="M200.929 221.435c-10.479-2.328-18.31-11.67-18.31-22.842 0-3.77.887-7.318 2.467-10.465.083 4.214.569 8.635.569 11.297 0 10.076 6.348 18.684 15.274 22.01" opacity=".2"/><path fill="url(#a)" d="M229.44 197.983c-2.536 6.861-9.134 11.754-16.882 11.754-9.924 0-17.977-8.053-17.977-17.977 0-7.457 4.546-13.861 11.019-16.578h.43c12.724 0 23.078 10.146 23.41 22.801"/><path fill="#fff" fill-rule="evenodd" d="M207.263 204.941q-1.372.347-2.731.638a.2.2 0 0 0-.014-.083 172 172 0 0 1-2.287-10.174 85 85 0 0 0 2.426-.568c4.117-.998 5.697 1.635 6.307 4.005.457 1.83.596 5.046-3.701 6.182m-.042-8.15c-.776-.485-1.15-.402-2.536-.055h-.042a900 900 0 0 0 1.58 6.417q.029 0 .042-.014c1.289-.319 3.229-.804 2.481-3.839-.194-.832-.624-1.941-1.525-2.509" clip-rule="evenodd"/><path fill="#fff" d="M216.577 192.758a76 76 0 0 1-1.871.804l-1.275.499q.346.845.665 1.704.665-.25 1.303-.512a83 83 0 0 0 1.691-.721q.387.929.734 1.871-.818.36-1.718.735-.652.263-1.331.526.43 1.261.804 2.551.693-.264 1.358-.541a71 71 0 0 0 1.996-.859 35 35 0 0 1 .527 1.857l.028.097q-.957.43-2.01.859a76 76 0 0 1-3.451 1.303.3.3 0 0 0-.014-.097 85 85 0 0 0-3.23-9.896 68 68 0 0 0 3.105-1.178q.942-.375 1.802-.776.457.873.887 1.774"/><path fill="#fff" fill-rule="evenodd" d="M223.702 198.579q-1.11.68-2.44 1.345l-.028-.097a38.4 38.4 0 0 0-3.95-9.592q1.054-.54 1.968-1.067c.153-.097.388-.222.596-.319 1.761-.818 3.41 2.162 2.883 3.618q.015.027.028.041c1.067-.152 1.677.929 2.01 1.858.236.679.859 3.007-1.067 4.213m-2.287-7.193c-.181-.361-.472-.652-.693-.693-.222-.042-.222-.042-.957.374a1 1 0 0 0-.097.055q.527.957.998 1.968.098-.056.18-.11c.596-.333 1.068-.596.569-1.594m2.079 3.686c-.264-.803-.596-.887-.735-.928-.222-.056-.277-.028-1.095.443a10 10 0 0 0-.263.153q.499 1.22.901 2.481a.3.3 0 0 1 .083-.042c.915-.526 1.525-.873 1.109-2.107" clip-rule="evenodd"/><path fill="#fff" d="M224.921 186.784q-.194.401-.527.818a24 24 0 0 1 3.465 7.651 9 9 0 0 1-.707.762l-.027-.083c-.693-2.745-1.871-5.309-3.382-7.61q-.444.43-.998.874-.541-.832-1.123-1.636c1.04-.818 1.747-1.594 2.107-2.329q.637.763 1.192 1.553"/><path fill="#C9D3D1" d="M147.357 247.244c0 1.095.887 1.982 1.969 1.982h66.6a1.976 1.976 0 0 0 0-3.951h-66.6a1.976 1.976 0 0 0-1.969 1.969"/><path fill="#24293A" d="M191.836 240.577h-5.281v3.285h5.281z"/><path fill="#333656" d="M186.942 243.099h4.906c.167.86 2.814 1.372 3.771 1.483l5.779 1.068c.139.332.222.679.222 1.067 0 1.414-1.469 1.483-2.883 1.483h-6.75l-1.275-1.4v1.4h-3.77c-1.414 0-1.608.097-1.608-1.303 0-1.414.194-3.798 1.608-3.798"/><path fill="#000" d="M190.713 246.8h-5.586v1.4h5.586zM201.482 247.313h-9.522v.887h9.522zM191.96 247.313l-1.247-.513 1.247 1.4z"/><path fill="#24293A" d="M186.555 243.099c0 .375.305.666.665.666h4.075c.36 0 .554-.291.554-.666 0-.36-.194-.665-.554-.665h-4.075a.665.665 0 0 0-.665.665M165.043 236.765l-2.62-3.285a.53.53 0 0 0-.748-.083l-1.733 1.386a.52.52 0 0 0-.083.748l2.62 3.285c.18.236.527.278.762.084l1.719-1.387a.517.517 0 0 0 .083-.748"/><path fill="#333656" d="m156.367 238.123 2.356 2.953 1.109-.874-.305 1.872 1.123 1.4.637.817h.776l.444 1.275h3.091c1.4 0 2.883-.069 2.883-1.483a2.8 2.8 0 0 0-.236-1.067l-3.465-.596-.333-.069a4 4 0 0 0-.097-.153c-.568-1.039-1.413-2.855-.928-3.423l-1.054-1.331-2.009-2.509c-.888-1.095-2.87.236-3.965 1.123-1.108.873-.901.97-.027 2.065"/><path fill="#000" d="m159.833 240.203.36 1.289 2.384 3.201h-1.137l-1.94-2.647zM168.329 244.693v.874h-6.209l-.68-.874h6.888999999999999M159.832 240.203l-3.493-4.367-1.095.874 3.479 4.366z"/><path fill="#24293A" d="M160.123 234.644a.65.65 0 0 0-.111.929l2.537 3.174c.235.291.582.25.873.028.291-.236.402-.568.18-.86l-2.55-3.174a.65.65 0 0 0-.929-.097"/><path fill="#FEB187" d="M204.63 219.758c-.361.139-.763-.055-.943-.402l-1.012-2.051v-.014l-.817-.194 1.607 4.311a.82.82 0 0 1-.485 1.067.82.82 0 0 1-.831-.153.81.81 0 0 1-.472.638c-.72.291-1.081-.374-1.122-.444q.014.015.014.028c-.028-.069-.153-.291-.236-.152-.097.152-.263.263-.541.318-.762.139-.928-.72-.984-1.081q0-.013 0 0a.85.85 0 0 1-.54.68.83.83 0 0 1-1.026-.43l-.028-.056-.443-1.192-.375-.693-.512-.984-.555-1.469c-.319-.707-.319-1.913.111-2.079v-.014l-.818-1.511-.762-1.178-.166-.263-.153-.222a2.3 2.3 0 0 1 .638-3.146q.07-.042.125-.083c.997-.596 2.273-.305 2.993.596q.07.083.139.194l1.164 1.982.79 1.982.07.18a1.1 1.1 0 0 1 .388-.056 2.26 2.26 0 0 1 1.317.527l2.564 1.816a.7.7 0 0 1 .235.416h.014l1.04 2.12a.74.74 0 0 1-.388 1.012"/><path fill="#E28366" d="M199.377 214.311c-.153 1.358-1.358 4.227-2.98 5.627l-.513-.984-.554-1.469c-.319-.707-.319-1.913.11-2.079v-.014l-.817-1.511-.763-1.178c.68-.776 1.733-1.94 2.01-1.996.374-.083 1.054-1.081 1.428-1.123q.069.084.138.195l1.165 1.982.79 1.982a2.4 2.4 0 0 1-.014.568"/><path fill="#03318B" d="M175.481 198.815h.014l3.299 1.4 1.968 1.289 6.764-8.594v-.748l3.535-4.131-2.703-4.38-1.636-3.534-3.978 7.9z"/><path fill="#002A7B" d="m187.83 192.522-.72-.36 1.344-5.946-1.511-1.387-1.275-3.146-3.243 6.057 1.594 9.148 1.455-1.94z"/><path fill="#03318B" d="M184.892 199.799c.166 1.15 1.815 1.954 2.37 3.34l1.358-2.453c1.608.042 3.354 2.329 2.869-.845-.651-4.159 1.996-18.186 1.996-18.186.291-4.352-3.049-7.72-10.243-5.571l1.331 2.494c-1.608-.041.748-.346.707 1.262-.028-.264-1.317 13.846-.388 19.959"/><path fill="#6F0F37" d="M174.067 220.216c.222.249.346.582.333.942-.014.36-.181.679-.43.901l-12.53 11.366s4.103 5.572 4.408 5.128c.194-.277 11.421-10.617 15.288-14.193q.013 0 .028-.014c1.053-.984.734-2.62.72-2.703l-6.057-16.619-12.53-9.023-2.328 3.465c-.61 1.22-.832 3.549-.25 5.378a7.78 7.78 0 0 0 3.299 4.269z"/><path fill="#7D1641" d="M161.882 204.913a7.87 7.87 0 0 0 3.438 4.145l4.38 2.55 15.441 6.584c.346.194.637.485.845.845.208.375.291.777.277 1.165l-.388 12.516-.014.818-.014.318-.041 1.913-.028 1.067-.028 1.386-.097 3.369 6.501.402.152-2.883v-.181l.056-1.122.014-.181.055-1.039.014-.347.055-1.108.028-.541.624-17.7a3.4 3.4 0 0 0-.291-1.566 3.6 3.6 0 0 0-.984-1.275l-12.087-7.943-3.035-2.189-13.279-8.4-.956 2.536-.568 1.47a7.83 7.83 0 0 0-.07 5.391"/><path fill="#6F0F37" d="M162.521 198.052c.887-.568 4.033 1.567 6.569 3.452 2.246 1.677 2.495 4.116 2.495 6.292 0 2.163-.928 4.159-1.843 3.784-.083-.027-.097-.013-.042.028.513.485 7.679 5.032 7.79 5.101-.014-.028-.18-.319-.43-.804-.568-1.192-1.524-3.548-1.594-6.223-.083-3.563 2.759-3.563 4.158-3.646l-2.633-1.469-13.514-9.051zM186.029 238.22l.07.181s.138-.832 2.841-.832c2.398 0 3.216 1.261 3.368 1.539v-.181l.056-1.122.013-.181.056-1.039.014-.347.055-1.108.028-.541-.333.277h-1.317l-1.593-1.594-3.147.264-.014.318-.041 1.913-.028 1.067z"/><path fill="#E28366" d="m194.137 160.546.846 9.508a7.536 7.536 0 0 0 8.163 6.861l.499-.041q.292-.028.583-.07a7.547 7.547 0 0 0 6.278-8.108l-.831-9.509a7.56 7.56 0 0 0-5.323-6.569 7.8 7.8 0 0 0-2.855-.292l-.499.042c-4.144.36-7.221 4.02-6.861 8.178"/><path fill="#FEB187" d="m198.06 160.726.831 9.508a7.56 7.56 0 0 0 5.336 6.57 7.547 7.547 0 0 0 6.279-8.108l-.831-9.509a7.57 7.57 0 0 0-5.323-6.569 7.546 7.546 0 0 0-6.292 8.108"/><path fill="#7A3730" d="M196.105 158.176s1.012.609 3.438-.569c2.522-1.233 6.168-2.384 10.7 2.745 2.426-8.802-7.111-14.235-13.667-8.885-1.704-.028-9.106 6.487-1.441 13.597.277-2.37.97-6.888.97-6.888"/><path fill="#E28366" d="M192.765 163.956a2.624 2.624 0 0 0 1.248 3.479 2.62 2.62 0 0 0 3.479-1.262c.623-1.303.055-2.855-1.248-3.479a2.613 2.613 0 0 0-3.479 1.262"/><path fill="#7A3730" d="m196.119 157.538.624 7.443s-.97-3.909-3.354-1.857c-.069-4.089 2.73-5.586 2.73-5.586M196.979 151.439c-.25-.526-1.067-1.413-2.329-.804 1.04.458 1.83 2.093 1.83 2.093z"/><path fill="#7A3730" d="M197.492 151.037c-.028-.582-.416-1.718-1.83-1.663.776.832.859 2.648.859 2.648z"/><path fill="#24293A" d="m163.062 195.28 10.7 7.125 6.002 3.867 2.494-3.881-16.549-10.978z"/><path fill="#03318B" d="m180.955 199.813-3.59-3.077-2.12.596.54-2.079-.762-.541-2.564.527 1.136-.998-5.1-4.006-.832 1.802-.832-2.911-.887 2.426 12.974 8.635z"/><path fill="#354059" d="m163.686 194.407 12.613 8.469a.76.76 0 0 0 1.053-.208l.721-1.053c.235-.333.138-.804-.208-1.04l-12.627-8.483-.153.236z"/><path fill="#1C2035" d="m163.713 243.363 1.067-.943-.332-.069-.098-.153z"/><path fill="#47231C" d="M202.481 165.161a.81.81 0 0 1-.749.874.83.83 0 0 1-.873-.749.81.81 0 0 1 .749-.873.793.793 0 0 1 .873.748M207.984 164.482c.027.444-.305.846-.749.873a.8.8 0 0 1-.873-.748.807.807 0 0 1 .748-.873.83.83 0 0 1 .874.748"/><path stroke="#572B22" stroke-linecap="round" stroke-miterlimit="10" stroke-width="5.1" d="M208.732 162.722s-.942.069-2.578-.693M200.526 162.916s.943-.042 2.481-.984"/><path fill="#F48967" d="M206.085 166.894c-.194.235-.61.43-1.109.471-.499.028-.943-.083-1.178-.305a.55.55 0 0 0-.125.333c.041.388.637.651 1.344.596.721-.056 1.275-.416 1.248-.804a.47.47 0 0 0-.18-.291"/><path stroke="#D86E52" stroke-linecap="round" stroke-miterlimit="10" stroke-width="6.5" d="M203.133 171.288c1.275-1.151 2.814-.804 3.701-.458"/><path fill="#7A3730" d="M202.523 154.198c1.761.568 3.202 3.091 3.701 4.948 0 0-4.394-2.62-6.681-1.539-1.732.804-2.217-1.691-1.663-2.689.555-.984 2.426-1.386 2.426-1.386z"/><path fill="#9BB2AE" d="m224.839 211.414.249.18s-.138.333-.346.79q-.471.666-.984 1.289c-.361-.845-1.068-1.691-.763-2.481.167-.443.763-.512 1.151-.277zM225.089 211.594l.138-.194.125.083.208.153a4 4 0 0 0-.041.291.8.8 0 0 0-.195-.166l-.11-.07zM227.693 206.507a21 21 0 0 1-1.22 2.994l-1.247 1.899-.236-.166-1.4-.943a.846.846 0 0 1-.263-1.15.835.835 0 0 1 1.164-.263l1.511 1.053h.014q0-.028.014-.055.028-.084.055-.181l-1.996-1.358a.85.85 0 0 1-.277-1.164.865.865 0 0 1 1.165-.264l1.691 1.179q.04-.097.069-.181l-1.663-1.15a.847.847 0 0 1-.264-1.164.833.833 0 0 1 1.151-.264z" style="mix-blend-mode:multiply"/><path fill="#FEB187" d="M225.754 205.052a.847.847 0 0 0 .264 1.164l2.12 1.428a.82.82 0 0 0 1.151-.263.835.835 0 0 0-.264-1.151l-2.12-1.441a.834.834 0 0 0-1.151.263M224.686 206.771a.833.833 0 0 0 .263 1.15l2.925 1.941a.834.834 0 0 0 1.15-.264.85.85 0 0 0-.263-1.164l-2.925-1.927a.82.82 0 0 0-1.15.264M224.117 208.85a.85.85 0 0 0 .264 1.164l2.12 1.428a.83.83 0 0 0 1.151-.263.823.823 0 0 0-.263-1.151l-2.121-1.441a.834.834 0 0 0-1.151.263M223.702 211.026a.85.85 0 0 0 .264 1.164l1.178.846a.84.84 0 0 0 1.15-.277.834.834 0 0 0-.263-1.151l-1.178-.845a.834.834 0 0 0-1.151.263"/><path fill="#03318B" d="m196.285 213.382-7.9-13.902z"/><path stroke="#03318B" stroke-linecap="round" stroke-miterlimit="10" stroke-width="42" d="m196.285 213.382-7.9-13.902"/><path fill="#2C344C" d="m180.679 201.337 1.58 1.054-2.495 3.881-1.594-1.026z"/><path fill="#24293A" fill-rule="evenodd" d="m175.717 202.945.208 1.761a1.96 1.96 0 0 1-1.719 2.162 1.95 1.95 0 0 1-2.162-1.719l-.194-1.774a1.937 1.937 0 0 1 1.719-2.148 1.937 1.937 0 0 1 2.148 1.718m-.845 1.885-.194-1.774a.904.904 0 0 0-.998-.79.903.903 0 0 0-.79.998l.208 1.76a.89.89 0 0 0 .984.79.9.9 0 0 0 .79-.984M175.896 209.141l.138 1.774a1.956 1.956 0 0 1-1.788 2.107 1.956 1.956 0 0 1-2.106-1.788l-.139-1.774a1.957 1.957 0 0 1 1.788-2.107 1.957 1.957 0 0 1 2.107 1.788m-.915 1.857-.139-1.774a.9.9 0 0 0-.97-.818.9.9 0 0 0-.818.971l.139 1.774a.9.9 0 0 0 .97.818.9.9 0 0 0 .818-.971M176.312 215.143l.264 1.76a1.96 1.96 0 0 1-1.65 2.218 1.964 1.964 0 0 1-2.217-1.65l-.25-1.746a1.936 1.936 0 0 1 1.636-2.218 1.935 1.935 0 0 1 2.217 1.636m-.776 1.912-.263-1.76a.905.905 0 0 0-1.026-.748.89.89 0 0 0-.748 1.011l.263 1.761a.89.89 0 0 0 1.012.762.91.91 0 0 0 .762-1.026M177.102 220.909l.583 1.677a1.93 1.93 0 0 1-1.192 2.481 1.937 1.937 0 0 1-2.481-1.192l-.596-1.677a1.947 1.947 0 0 1 1.192-2.481 1.96 1.96 0 0 1 2.494 1.192m-.402 2.023-.596-1.677a.893.893 0 0 0-1.15-.54.885.885 0 0 0-.541 1.136l.596 1.677a.886.886 0 0 0 1.137.541c.471-.153.707-.666.554-1.137M179.209 225.982l1.137 1.372a1.955 1.955 0 0 1-.264 2.744c-.831.679-2.065.568-2.744-.263l-1.137-1.372c-.679-.832-.568-2.066.264-2.745a1.94 1.94 0 0 1 2.744.264m.319 2.037-1.137-1.372a.896.896 0 0 0-1.261-.111.88.88 0 0 0-.111 1.247l1.123 1.373a.89.89 0 0 0 1.261.124.887.887 0 0 0 .125-1.261M182.827 230.14l1.497.956c.915.568 1.179 1.774.61 2.689-.582.901-1.788 1.178-2.689.61l-1.511-.956a1.965 1.965 0 0 1-.609-2.689 1.967 1.967 0 0 1 2.702-.61m.929 1.843-1.497-.956a.886.886 0 0 0-1.233.291.894.894 0 0 0 .277 1.233l1.497.943a.91.91 0 0 0 1.247-.277.89.89 0 0 0-.291-1.234M187.387 232.926l1.774.138a1.946 1.946 0 0 1 1.802 2.093 1.965 1.965 0 0 1-2.093 1.802l-1.774-.139a1.964 1.964 0 0 1-1.802-2.092 1.97 1.97 0 0 1 2.093-1.802m1.705 1.192-1.774-.139a.91.91 0 0 0-.97.832c-.028.499.332.928.831.956l1.774.139a.9.9 0 0 0 .957-.832.88.88 0 0 0-.818-.956M193.264 233.383l1.774-.125a1.97 1.97 0 0 1 2.079 1.816 1.954 1.954 0 0 1-1.816 2.079l-1.774.125a1.955 1.955 0 0 1-2.079-1.816 1.944 1.944 0 0 1 1.816-2.079m1.843.929-1.774.125a.88.88 0 0 0-.831.956.895.895 0 0 0 .942.832l1.788-.125a.9.9 0 0 0 .832-.957.916.916 0 0 0-.957-.831" clip-rule="evenodd"/><path fill="#24293A" d="M174.718 205.911a.758.758 0 0 0-1.511-.097l-.138 2.412a.78.78 0 0 0 .721.804.76.76 0 0 0 .79-.721zM175.037 212.024a.756.756 0 0 0-1.511.014v2.398a.77.77 0 0 0 .763.762.756.756 0 0 0 .748-.762zM175.482 218.178a.76.76 0 0 0-.846-.665.75.75 0 0 0-.665.831l.277 2.398c.055.416.43.707.845.666a.773.773 0 0 0 .666-.846zM176.95 223.833a.765.765 0 0 0-1.012-.36.75.75 0 0 0-.36.998l1.025 2.19a.75.75 0 0 0 .998.36.77.77 0 0 0 .375-1.012zM180.041 228.865a.75.75 0 0 0-1.067-.111.765.765 0 0 0-.097 1.067l1.539 1.857a.735.735 0 0 0 1.053.097.737.737 0 0 0 .111-1.053zM184.504 232.621a.75.75 0 0 0-1.04.235.76.76 0 0 0 .236 1.04l2.038 1.289a.747.747 0 0 0 1.039-.236.747.747 0 0 0-.236-1.039zM190.02 234.45a.757.757 0 0 0-.762.749.76.76 0 0 0 .762.762h2.412a.756.756 0 0 0 .748-.762.745.745 0 0 0-.748-.749zM196.007 234.423a.74.74 0 0 0-.638.845.76.76 0 0 0 .846.652l2.384-.347a.75.75 0 0 0 .651-.845.765.765 0 0 0-.859-.652z"/><path fill="#FEB187" d="M203.215 220.728c.527 1.179.443 1.234.707 1.941.208.596-1.054 1.275-1.553.236-.623-1.331-.485-1.414-.485-1.414l.735-.818z"/><path fill="#00143C" d="M151.06 374.329q.119.059.267.088h49.574c-.444-1.746-2.072-4.972-7.755-5.889-7.695-1.243-21.013-5.712-24.002-15.568a14 14 0 0 1-.267-.977c-2.338-10.506-19.533 3.226-19.533 3.226s-.059.415-.119 1.125c-.414 3.877-1.42 16.367 1.835 17.995"/><path fill="#002162" d="M216.676 196.188s-32.261 114.597-41.998 158.903c0 0-23.914 4.795-27.643-2.723 0 0 7.695-124.778 21.902-140.612 17.639-19.741 47.739-15.568 47.739-15.568"/><path fill="#ED975D" d="M219.34 80.081s-.859-5.12.473-9.412c1.302-4.261 6.837-15.508 5.091-19.415-1.746-3.936-8.08-14.443-11.987-14.413s4.114 11.246 3.019 14.768-1.48 3.789-2.841 3.493c-1.332-.326-3.404-7.044-4.085-5.476-.68 1.569-.296 11.987 1.007 14.562 1.272 2.604-1.362 17.225-1.362 17.225z"/><path fill="#67072F" d="M222.447 77.802s-8.642-4.913-15.301-2.841c0 0-13.26 38.179-20.57 66.237-13.999-34.569-22.641-69.049-22.641-69.049s-16.988 23.47-23.115 39.067 30.514 70.322 44.75 74.613c14.828 4.499 12.134 0 20.51-4.795 2.693-3.492 11.306-20.895 16.367-103.232"/><path fill="#00143C" d="M261.514 376.104q.119.06.267.119h49.574c-.444-1.776-2.072-5.002-7.754-5.919-7.696-1.244-21.044-5.713-24.003-15.568a17 17 0 0 1-.267-.947c-2.367-10.537-19.533 3.196-19.533 3.196s-.059.444-.119 1.154c-.414 3.848-1.42 16.338 1.835 17.965"/><path fill="#03318B" d="M226.294 193.406s-4.853 2.16-10.802 6.57c-.681-3.463-1.658-5.712-1.658-5.712-42.559-11.069-156.476-10.181-156.476-10.181s-24.506 6.126-17.314 41.79c6.63 32.822 116.018 17.61 151.327 7.784a73 73 0 0 0 2.427-.74c-2.812 20.925 16.87 50.728 34.095 78.194 14.206 22.611 26.311 45.519 26.311 45.519 7.133 4.41 31.076 1.865 31.076 1.865-15.124-42.767-58.986-165.089-58.986-165.089"/><path fill="#FFB27D" d="M132.355 60.577s12.224 39.097 30.574 47.857c0 0 1.746-11.868-1.243-20.895a240 240 0 0 0 6.452-5.12c6.215-5.18 9.382-8.494 9.382-8.494l-2.753-19.09-1.835-12.933c-2.989 3.403-6.067 6.215-9.145 8.523-15.834 11.81-31.432 10.152-31.432 10.152"/><path fill="#ED975D" d="M163.787 50.426s-6.156 16.929 4.351 31.993c6.215-5.18 9.382-8.494 9.382-8.494l-2.752-19.09c-6.571-3.67-10.981-4.41-10.981-4.41"/><path fill="#FFB27D" d="M182.166 77.625S155.115 59.66 166.54 42.997c11.453-16.693 15.656-30.248 33.414-19.475 17.758 10.744 16.722 19.386 14.265 25.897-2.486 6.482-24.713 32.438-32.053 28.206"/><path fill="#00143C" d="M169.706 8.073c-.118-.444-.651-1.036-2.013-1.805 0 0 1.48-.148 2.99.562 1.272-1.865 4.054-4.883 7.843-4.084 0 0-2.279.088-3.581 2.101 5.919-2.16 15.745-1.036 38.001 12.194 29.33 17.402 9.53 32.319 4.41 32.763-5.09.414-11.868-10.95-19.533-13.97-7.636-2.989-14.355 7.133-17.581 7.37-3.226.266-.947-1.865-3.581-5.09-2.604-3.197-5.712 2.338-6.541 6.51-.858 4.174-7.872 6.778-7.872 6.778l-2.19-7.429c-2.191-7.428 4.054-31.342 8.464-34.953q.563-.474 1.184-.947"/><path fill="#7D1641" d="M165.296 125.748c-8.139 19.238-15.568 31.521-16.544 33.148-3.493 5.772-7.251 11.099-10.685 15.716q-.178.237-.325.444c-6.778 9.116-17.136 11.631-16.811 13.91.651 4.588-10.951 15.598-30.04 20.451-22.138 5.683-47.799 8.406-54.28.918-2.19-2.516-2.9-7.162-2.664-12.904.474-12.105 15.716-60.85 15.716-60.85C75.737 57.677 150.38 57.677 150.38 57.677s-1.451 18.912 16.869 25.452c.03.06 4.292 27.762-1.953 42.619"/><path fill="#FFB27D" d="M209.128 181.863s11.217 3.966 14.295 5.89 10.152 11.631 10.951 15.005c.799 3.404 1.716 13.378 1.154 15.065-.592 1.657-9.175-4.736-11.069-10.773-1.924-6.008-6.837-7.636-6.63-7.311.178.326 2.694 8.021 2.161 8.376-.533.326-2.812.888-4.884-3.403-2.071-4.321-6.156-7.459-5.386-11.898.769-4.469-.592-10.951-.592-10.951"/><path fill="#67072F" d="M121.286 189.617c.652 4.588-11.305 14.947-30.395 19.8-15.923-31.668 14.354-104.179 14.354-104.179l32.823 69.374c-6.926 9.352-17.107 12.667-16.782 15.005"/><path fill="#67072F" d="M148.752 158.896c-3.493 5.772-7.251 11.099-10.685 15.716q-.177.237-.325.444c-4.499-1.717-8.968-5.179-11.217-8.376-5.179-7.281-5.594-51.142-5.594-51.142s21.132 26.133 27.821 43.358"/><path fill="#7D1641" d="M213.42 182.869s-51.143-14.324-77.395-20.599c2.309-30.987 9.885-124.63-37.824-87.132 0 0-3.581 100.362 19.534 120.695 0 0 74.198 1.568 88.315.71 0 0 4.144-2.161 5.18-3.581 3.314-4.588 2.19-10.093 2.19-10.093"/><path fill="#F99746" d="M169.735 244.489V264.2c0 4.085-3.314 7.429-7.399 7.429H45.696c-4.084 0-7.428-3.344-7.428-7.429v-19.711c0-4.084 3.344-7.429 7.429-7.429h116.639c4.085 0 7.399 3.345 7.399 7.429"/><path fill="#ED7D2B" d="M169.735 260.619v3.581c0 4.085-3.314 7.429-7.399 7.429H45.696c-4.084 0-7.428-3.344-7.428-7.429v-3.877h129.336c.74 0 1.451.119 2.131.296"/><path fill="#E8C6A7" d="m66.355 271.629-5.268 19.918q.03 0 0 0l-21.872 82.9h-2.308l12.637-68.782q.03-.089.06-.207l6.244-34.007z"/><path fill="#C69D7B" d="m66.355 271.629-5.268 19.918q.03 0 0 0c-.296.148-9.856 5.091-11.484 13.911l6.245-34.007z"/><path fill="#E8C6A7" d="M169.736 374.447h-2.309l-17.817-67.539-4.055-15.361h-.029l-5.239-19.918 10.507-.178 3.581 19.445 2.664 14.562q.029.119.059.207zM134.19 297.703q-.03 0-.03-.029c-.059-.089-.059-.059.03.029"/><path fill="#C69D7B" d="M154.375 290.896c-1.953 2.812-4.617 8.11-4.765 16.012l-4.055-15.361h-.029l-5.239-19.918 10.507-.178z"/><path fill="#A99FC5" d="M326.981 376.608H2.131c-.178 0-.355-.415-.355-.948v-.295c0-.504.177-.918.355-.918h324.85c.178 0 .355.414.355.918v.295c0 .533-.177.948-.355.948"/><defs><linearGradient id="a" x1="175.319" x2="209.418" y1="211.57" y2="148.119" gradientUnits="userSpaceOnUse"><stop stop-color="#24293A"/><stop offset="1" stop-color="#354059"/></linearGradient></defs></svg>