<svg width="592" height="386" viewBox="0 0 592 386" fill="none" xmlns="http://www.w3.org/2000/svg">
<path d="M433.405 220.593C433.405 220.593 431.86 222.606 433.03 226.353C431.813 227.852 431.298 229.538 431.298 229.538C431.298 229.538 428.347 230.427 427.879 233.237C427.176 233.565 425.771 235.111 425.771 235.111C425.771 235.111 423.336 235.86 423.758 238.576C422.962 238.155 417.576 237.359 418.84 235.392C421.51 231.27 429.003 216.237 429.003 216.237L433.405 220.593Z" fill="#EC9171"/>
<path d="M366.67 275.573L361.752 276.744C358.849 277.353 355.992 275.48 355.383 272.576L353.557 263.912C352.948 260.962 354.821 258.105 357.725 257.496L362.642 256.326C365.546 255.717 368.449 257.59 369.058 260.494L370.838 269.157C371.493 272.108 369.62 274.965 366.67 275.573Z" stroke="#24293A" stroke-width="10" stroke-miterlimit="10" stroke-linecap="round"/>
<path d="M246.733 133.111C250.433 132.502 254.179 132.08 257.973 131.987C260.455 131.893 262.843 132.034 265.278 132.268C265.341 132.174 265.419 132.08 265.513 131.987C268.041 126.788 273.099 122.339 277.736 120.185C283.636 117.422 291.13 116.111 297.546 117.843C302.603 118.686 307.099 120.887 311.033 124.4C312.204 125.477 313.375 126.695 314.452 128.053C316.794 131.003 318.714 134.562 319.51 138.028L327.143 129.13L326.3 132.174L351.075 139.058L342.036 115.034C340.069 113.254 332.716 115.642 330.89 113.816C327.003 110.022 319.182 109.648 315.014 106.885C310.19 103.747 308.13 100.89 301.245 101.265C297.03 101.546 293.143 100.281 288.554 102.061C275.441 106.978 265.513 117.047 254.039 127.35L246.733 133.111Z" fill="#179BDD"/>
<path d="M339.366 142.805L327.799 140.229C327.799 140.229 296.187 129.692 294.08 129.926C291.973 130.16 278.157 103.981 296.89 99.4853C326.16 92.4605 341.849 106.276 334.215 119.529L339.366 142.805Z" fill="#002A7B"/>
<path fill-rule="evenodd" clip-rule="evenodd" d="M329.251 307.7L334.074 304.141C336.978 301.94 341.099 302.549 343.253 305.499C345.455 308.403 344.846 312.524 341.895 314.725L337.072 318.284C334.168 320.485 330.047 319.876 327.893 316.926C325.691 314.022 326.3 309.901 329.251 307.7ZM336.182 306.998L331.358 310.557C330 311.587 329.719 313.46 330.749 314.819C331.733 316.13 333.606 316.411 334.964 315.427L339.788 311.868C341.146 310.838 341.427 308.965 340.397 307.606C339.413 306.295 337.54 306.014 336.182 306.998Z" fill="#24293A"/>
<path fill-rule="evenodd" clip-rule="evenodd" d="M344.612 296.742L348.218 291.918C350.419 289.061 354.587 288.452 357.444 290.653C360.347 292.854 360.956 296.976 358.755 299.879L355.102 304.703C352.901 307.607 348.78 308.168 345.876 305.967C342.972 303.766 342.41 299.645 344.612 296.742ZM351.074 294.072L347.468 298.896C346.438 300.207 346.719 302.127 348.03 303.111C349.342 304.141 351.262 303.86 352.292 302.549L355.898 297.725C356.882 296.414 356.647 294.494 355.289 293.51C353.978 292.48 352.058 292.761 351.074 294.072Z" fill="#24293A"/>
<path fill-rule="evenodd" clip-rule="evenodd" d="M356.273 281.849L358.287 276.182C359.504 272.764 363.251 270.984 366.67 272.202C370.135 273.372 371.915 277.166 370.697 280.584L368.73 286.251C367.513 289.67 363.719 291.496 360.3 290.279C356.882 289.061 355.055 285.314 356.273 281.849ZM361.659 277.4L359.645 283.067C359.083 284.612 359.926 286.345 361.471 286.907C363.063 287.469 364.796 286.626 365.358 285.08L367.325 279.414C367.887 277.821 367.091 276.089 365.499 275.527C363.906 275.011 362.221 275.808 361.659 277.4Z" fill="#24293A"/>
<path d="M339.085 305.405C337.961 306.248 337.727 307.841 338.57 308.965C339.413 310.135 341.005 310.37 342.129 309.527L348.686 304.656C349.81 303.813 350.044 302.221 349.201 301.097C348.358 299.926 346.766 299.692 345.642 300.535L339.085 305.405Z" fill="#24293A"/>
<path d="M353.416 291.73C352.573 292.901 352.807 294.494 353.931 295.337C355.055 296.18 356.647 295.945 357.49 294.821L362.408 288.359C363.251 287.235 363.063 285.642 361.939 284.752C360.815 283.91 359.176 284.144 358.333 285.268L353.416 291.73Z" fill="#24293A"/>
<path d="M220.226 166.642L253.43 189.73L259.659 194.226L263.077 196.662L272.116 193.196L308.645 159.945L321.336 143.086L322.132 142.009L323.584 140.089C324.053 139.527 325.738 136.717 325.551 137.466L326.066 137.372L328.736 136.998L330.141 129.364L327.659 124.681C326.535 123.697 328.876 116.907 327.799 115.876C327.003 115.127 330.281 114.144 329.485 113.394C325.645 109.695 321.992 106.135 317.871 103.466C317.746 103.372 317.605 103.279 317.449 103.185C316.918 102.842 316.372 102.514 315.81 102.202C314.998 101.764 314.155 101.343 313.281 100.937C313.125 100.875 312.985 100.828 312.86 100.797C312.704 100.703 312.547 100.64 312.391 100.609C311.954 100.422 311.502 100.25 311.033 100.094C310.94 100.063 310.83 100.032 310.705 100C309.831 99.7195 308.926 99.4853 307.989 99.298C307.802 99.2667 307.63 99.2355 307.474 99.2043C307.287 99.1731 307.084 99.1419 306.865 99.1106C306.428 99.0482 305.975 99.0014 305.507 98.9701C305.351 98.9389 305.195 98.9233 305.039 98.9233H304.992C304.773 98.8921 304.57 98.8765 304.383 98.8765C304.165 98.8765 303.946 98.8765 303.727 98.8765C303.509 98.8453 303.29 98.8297 303.072 98.8297C302.479 98.8297 301.885 98.8609 301.292 98.9233C301.042 98.9233 300.808 98.9389 300.59 98.9701C300.34 98.9701 300.09 98.9858 299.84 99.017C299.653 99.0482 299.466 99.0794 299.278 99.1106C298.966 99.1419 298.654 99.1731 298.342 99.2043C298.186 99.2355 298.03 99.2667 297.873 99.298C297.717 99.3292 297.561 99.3604 297.405 99.3916C297.155 99.4229 296.906 99.4697 296.656 99.5321C296.437 99.5634 296.219 99.6102 296 99.6726C295.782 99.7038 295.547 99.7507 295.298 99.8131C294.736 99.938 294.158 100.079 293.565 100.235C293.346 100.297 293.128 100.359 292.909 100.422C292.659 100.484 292.41 100.562 292.16 100.656C291.723 100.781 291.286 100.921 290.849 101.078C290.599 101.14 290.349 101.218 290.099 101.312C289.943 101.374 289.787 101.437 289.631 101.499C289.412 101.562 289.178 101.64 288.929 101.733C288.741 101.796 288.554 101.874 288.367 101.967C275.675 106.744 260.595 118.686 245.141 134.609L222.708 159.196L220.226 166.642Z" fill="#03318B"/>
<path d="M259.658 194.273L263.077 196.662L272.069 193.337L308.972 160.741L322.085 143.929L322.226 142.477C322.444 142.602 322.678 142.727 322.928 142.852C323.927 143.382 324.942 143.835 325.972 144.21C326.253 142.212 326.597 140.213 327.003 138.215C327.565 135.187 328.236 132.174 329.016 129.177C330.187 124.728 327.611 115.455 329.391 111.287C333.231 102.014 342.691 98.5018 350.887 91.5239C351.105 91.3365 351.324 91.1648 351.543 91.0087L346.297 81.9233L330.89 113.816L328.782 118.124L319.088 103.607C318.932 103.513 318.791 103.419 318.666 103.326C318.104 102.982 317.542 102.654 316.981 102.342C316.138 101.874 315.263 101.437 314.358 101.031C314.202 100.968 314.046 100.906 313.89 100.843C313.734 100.781 313.577 100.719 313.421 100.656C312.984 100.469 312.531 100.297 312.063 100.141C311.938 100.11 311.813 100.078 311.689 100.047C310.783 99.7663 309.846 99.5321 308.879 99.3448C308.691 99.3136 308.504 99.2824 308.317 99.2511C308.129 99.1887 307.942 99.1575 307.755 99.1575C307.286 99.0638 306.818 99.0014 306.35 98.9701C306.162 98.9389 305.975 98.9233 305.788 98.9233H305.741C305.554 98.8921 305.366 98.8765 305.179 98.8765C304.929 98.8765 304.695 98.8765 304.476 98.8765C304.227 98.8453 303.992 98.8296 303.774 98.8296C303.181 98.8296 302.572 98.8609 301.947 98.9233C301.698 98.9233 301.448 98.9389 301.198 98.9701C300.948 99.0014 300.699 99.017 300.449 99.017C300.262 99.0482 300.074 99.0794 299.887 99.1106C299.543 99.1419 299.2 99.1887 298.857 99.2511C298.7 99.2511 298.544 99.2667 298.388 99.298C298.232 99.3292 298.076 99.3604 297.92 99.3916C297.639 99.4541 297.374 99.5009 297.124 99.5321C296.905 99.5946 296.687 99.6414 296.468 99.6726C296.25 99.7351 296.015 99.7975 295.766 99.86C295.172 99.9848 294.564 100.125 293.939 100.281C293.721 100.344 293.486 100.406 293.237 100.469C292.987 100.562 292.737 100.64 292.487 100.703C292.019 100.828 291.566 100.968 291.129 101.124C290.848 101.218 290.583 101.312 290.333 101.405C290.177 101.468 290.021 101.515 289.865 101.546C289.615 101.64 289.365 101.733 289.115 101.827C288.928 101.889 288.741 101.967 288.554 102.061C302.135 101.686 313.047 114.191 314.452 128.053C314.514 128.646 314.561 129.239 314.592 129.832C314.733 132.83 279.796 171.981 259.658 194.273Z" fill="#002A7B"/>
<path d="M327.799 108.758C324.052 106.744 315.061 106.51 316.466 112.505C317.87 118.593 317.87 126.414 314.592 136.108C312.672 141.775 310.143 145.146 306.022 150.532L311.642 159.899L327.658 147.488C327.658 147.488 327.05 146.692 330.328 135.171C333.606 123.604 327.799 108.758 327.799 108.758Z" fill="#002A7B"/>
<path d="M318.432 99.5789C312.813 102.67 313.515 107.681 317.027 114.003C320.118 119.529 326.815 121.637 331.311 117.141C335.76 112.692 335.76 105.433 331.311 100.937C326.815 96.4412 323.959 96.488 318.432 99.5789Z" fill="#D1735D"/>
<path d="M434.201 191.182C434.201 199.706 432.843 207.901 430.361 215.582C429.143 219.328 427.676 222.934 425.959 226.4C424.71 228.866 423.352 231.27 421.884 233.612C421.728 233.862 421.572 234.112 421.416 234.361C420.854 235.204 420.277 236.047 419.683 236.89C418.559 238.483 417.373 240.028 416.124 241.527C401.606 259.089 379.689 270.281 355.102 270.281C311.408 270.281 276.003 234.876 276.003 191.182C276.003 147.488 311.408 112.083 355.102 112.083C398.796 112.083 434.201 147.488 434.201 191.182Z" fill="#24293A"/>
<path opacity="0.2" d="M337.868 268.361C302.463 260.494 276.003 228.929 276.003 191.182C276.003 178.444 279 166.455 284.339 155.824C284.62 170.061 286.259 185 286.259 193.992C286.259 228.039 307.708 257.122 337.868 268.361Z" fill="#179BDD"/>
<path d="M434.201 189.122C425.631 212.303 403.339 228.835 377.16 228.835C343.628 228.835 316.419 201.626 316.419 168.094C316.419 142.898 331.78 121.262 353.65 112.083C354.119 112.083 354.603 112.083 355.102 112.083C398.094 112.083 433.077 146.364 434.201 189.122Z" fill="url(#paint0_linear_113_2564)"/>
<path fill-rule="evenodd" clip-rule="evenodd" d="M359.27 212.631C356.179 213.412 353.104 214.13 350.044 214.786C350.044 214.692 350.029 214.598 349.997 214.505C347.047 203.031 344.424 191.323 342.27 180.13C344.986 179.537 347.718 178.897 350.466 178.21C364.375 174.838 369.714 183.736 371.774 191.744C373.32 197.926 373.788 208.791 359.27 212.631ZM359.13 185.094C356.507 183.455 355.242 183.736 350.559 184.907C350.497 184.907 350.45 184.907 350.419 184.907C352.152 192.025 353.931 199.331 355.758 206.59C355.82 206.59 355.867 206.574 355.898 206.543C360.253 205.466 366.81 203.827 364.281 193.571C363.625 190.761 362.174 187.014 359.13 185.094Z" fill="white"/>
<path d="M390.741 171.466C388.712 172.371 386.604 173.277 384.419 174.182C382.983 174.744 381.547 175.306 380.11 175.868C380.891 177.773 381.64 179.693 382.358 181.629C383.857 181.067 385.324 180.489 386.761 179.896C388.728 179.084 390.632 178.272 392.474 177.46C393.348 179.552 394.176 181.66 394.956 183.783C393.114 184.595 391.178 185.422 389.149 186.265C387.682 186.858 386.183 187.451 384.653 188.044C385.621 190.886 386.526 193.758 387.369 196.662C388.93 196.068 390.46 195.46 391.959 194.835C394.301 193.867 396.548 192.899 398.703 191.932C399.358 194.023 399.952 196.115 400.482 198.207C400.514 198.301 400.545 198.41 400.576 198.535C398.422 199.503 396.158 200.471 393.785 201.438C389.992 202.984 386.105 204.436 382.124 205.841C382.124 205.716 382.109 205.606 382.077 205.513C379.127 194.039 375.334 182.659 371.166 172.075C374.725 170.81 378.237 169.499 381.656 168.094C383.779 167.251 385.808 166.377 387.744 165.471C388.774 167.438 389.773 169.437 390.741 171.466Z" fill="white"/>
<path fill-rule="evenodd" clip-rule="evenodd" d="M414.813 191.135C412.315 192.665 409.567 194.18 406.57 195.678C406.539 195.584 406.508 195.475 406.477 195.35C403.526 183.923 398.89 172.871 393.129 162.943C395.502 161.725 397.719 160.523 399.78 159.337C400.295 159.009 401.091 158.587 401.793 158.259C407.741 155.496 413.314 165.565 411.534 170.483C411.566 170.545 411.597 170.592 411.628 170.623C415.234 170.108 417.295 173.761 418.419 176.899C419.215 179.193 421.322 187.061 414.813 191.135ZM407.085 166.83C406.477 165.612 405.493 164.629 404.744 164.488C403.994 164.348 403.994 164.348 401.512 165.753C401.387 165.815 401.278 165.877 401.184 165.94C402.371 168.094 403.495 170.311 404.556 172.59C404.775 172.465 404.978 172.34 405.165 172.215C407.179 171.091 408.771 170.202 407.085 166.83ZM414.11 179.287C413.22 176.571 412.096 176.29 411.628 176.149C410.879 175.962 410.691 176.056 407.928 177.648C407.647 177.804 407.351 177.976 407.038 178.163C408.162 180.91 409.177 183.705 410.083 186.546C410.176 186.483 410.27 186.437 410.364 186.405C413.454 184.626 415.515 183.455 414.11 179.287Z" fill="white"/>
<path d="M418.934 151.281C418.497 152.187 417.904 153.108 417.154 154.045C422.4 161.725 426.38 170.295 428.769 179.568C428.8 179.662 428.831 179.771 428.862 179.896C428.176 180.739 427.379 181.597 426.474 182.472C426.443 182.378 426.412 182.284 426.38 182.191C424.039 172.918 420.058 164.254 414.953 156.48C413.954 157.448 412.83 158.431 411.581 159.43C410.364 157.557 409.099 155.715 407.788 153.904C411.3 151.141 413.689 148.518 414.907 146.036C416.343 147.753 417.685 149.502 418.934 151.281Z" fill="white"/>
<path d="M156.862 355.562C156.862 359.262 159.86 362.259 163.512 362.259H388.54C392.193 362.259 395.19 359.262 395.19 355.562C395.19 351.91 392.193 348.912 388.54 348.912H163.512C159.86 348.912 156.862 351.91 156.862 355.562Z" fill="#C9D3D1"/>
<path d="M307.146 333.036H289.303V344.135H307.146V333.036Z" fill="#24293A"/>
<path d="M290.615 341.56H301.48H307.193C307.755 344.463 316.7 346.196 319.931 346.571L339.46 350.177C339.929 351.301 340.21 352.472 340.21 353.783C340.21 358.56 335.245 358.794 330.469 358.794H313.75H307.661L303.353 354.064V358.794H290.615C285.838 358.794 285.182 359.122 285.182 354.392C285.182 349.615 285.838 341.56 290.615 341.56Z" fill="#333656"/>
<path d="M303.353 354.064H284.479V358.794H303.353V354.064Z" fill="black"/>
<path d="M339.741 355.797H307.568V358.794H339.741V355.797Z" fill="black"/>
<path d="M307.567 355.797L303.353 354.064L307.567 358.794V355.797Z" fill="black"/>
<path d="M289.303 341.56C289.303 342.824 290.334 343.808 291.551 343.808H305.32C306.537 343.808 307.193 342.824 307.193 341.56C307.193 340.342 306.537 339.312 305.32 339.312H291.551C290.334 339.312 289.303 340.295 289.303 341.56Z" fill="#24293A"/>
<path d="M216.62 320.157L207.769 309.058C207.16 308.262 205.989 308.168 205.24 308.777L199.386 313.46C198.59 314.069 198.449 315.24 199.105 315.989L207.956 327.089C208.565 327.885 209.736 328.025 210.532 327.37L216.339 322.686C217.135 322.078 217.276 320.954 216.62 320.157Z" fill="#24293A"/>
<path d="M187.303 324.747L195.265 334.722L199.011 331.772L197.981 338.094L201.774 342.824L203.929 345.587H206.551L208.05 349.896H218.493C223.223 349.896 228.234 349.662 228.234 344.885C228.234 343.62 227.906 342.403 227.438 341.279L215.73 339.265L214.606 339.031C214.513 338.875 214.403 338.703 214.278 338.516C212.358 335.003 209.502 328.868 211.141 326.948L207.581 322.452L200.791 313.976C197.794 310.276 191.097 314.772 187.397 317.769C183.65 320.719 184.353 321.047 187.303 324.747Z" fill="#333656"/>
<path d="M199.011 331.772L200.229 336.127L208.284 346.945H204.444L197.887 338L199.011 331.772Z" fill="black"/>
<path d="M227.719 346.945V349.896H206.739L204.444 346.945H208.05H227.719Z" fill="black"/>
<path d="M199.011 331.772L187.209 317.02L183.51 319.97L195.265 334.722L199.011 331.772Z" fill="black"/>
<path d="M199.995 312.992C199.011 313.741 198.824 315.193 199.62 316.13L208.19 326.854C208.987 327.838 210.157 327.697 211.141 326.948C212.124 326.152 212.499 325.028 211.75 324.045L203.133 313.32C202.383 312.337 200.931 312.196 199.995 312.992Z" fill="#24293A"/>
<path d="M350.372 262.695C349.154 263.163 347.796 262.507 347.187 261.337L343.769 254.405C343.769 254.405 343.769 254.39 343.769 254.359L341.005 253.703L346.438 268.268C347 269.719 346.251 271.359 344.799 271.874C343.815 272.248 342.738 272.014 341.989 271.359C341.848 272.295 341.286 273.138 340.397 273.513C337.961 274.496 336.744 272.248 336.603 272.014C336.634 272.045 336.65 272.077 336.65 272.108C336.556 271.874 336.135 271.124 335.854 271.593C335.526 272.108 334.964 272.483 334.028 272.67C331.452 273.138 330.89 270.235 330.702 269.017C330.702 268.986 330.702 268.986 330.702 269.017C330.562 270 329.906 270.937 328.876 271.312C327.518 271.78 326.019 271.171 325.41 269.86C325.379 269.798 325.348 269.735 325.317 269.673L323.818 265.645L322.554 263.303L320.821 259.978L318.948 255.014C317.87 252.626 317.87 248.551 319.322 247.989C319.322 247.989 319.322 247.974 319.322 247.943L316.559 242.838L313.983 238.857L313.421 237.967L312.906 237.218C310.612 233.659 311.595 228.929 315.061 226.587C315.217 226.494 315.357 226.4 315.482 226.306C318.854 224.292 323.163 225.276 325.598 228.32C325.754 228.507 325.91 228.726 326.066 228.976L330 235.673L332.669 242.37L332.904 242.978C333.278 242.838 333.747 242.791 334.215 242.791C335.573 242.838 337.259 243.4 338.664 244.571L347.328 250.706C347.749 251.08 348.03 251.549 348.124 252.111C348.124 252.111 348.14 252.111 348.171 252.111L351.683 259.276C352.339 260.54 351.73 262.133 350.372 262.695Z" fill="#FEB187"/>
<path d="M332.623 244.29C332.107 248.879 328.033 258.573 322.554 263.303L320.821 259.978L318.948 255.014C317.87 252.626 317.87 248.551 319.322 247.989C319.322 247.989 319.322 247.974 319.322 247.943L316.559 242.838L313.983 238.857C316.278 236.235 319.837 232.301 320.774 232.113C322.038 231.832 324.333 228.461 325.598 228.32C325.754 228.507 325.91 228.726 326.066 228.976L330 235.673L332.669 242.37C332.732 242.994 332.716 243.634 332.623 244.29Z" fill="#E28366"/>
<path d="M251.884 191.932H251.931L263.077 196.662L269.727 201.017L292.581 171.981V169.452L304.523 155.496L295.391 140.697L289.865 128.755L276.424 155.449L251.884 191.932Z" fill="#03318B"/>
<path d="M293.612 170.67L291.176 169.452L295.719 149.361L290.614 144.678L286.306 134.047L275.347 154.513L280.733 185.422L285.65 178.865L293.612 170.67Z" fill="#002A7B"/>
<path d="M283.683 195.257C284.245 199.144 289.818 201.86 291.692 206.543L296.281 198.254C301.714 198.394 307.614 206.122 305.975 195.397C303.774 181.348 312.719 133.954 312.719 133.954C313.703 119.248 302.416 107.868 278.11 115.127L282.606 123.557C277.174 123.416 285.135 122.386 284.995 127.819C284.901 126.929 280.546 174.604 283.683 195.257Z" fill="#03318B"/>
<path d="M247.108 264.24C247.857 265.083 248.278 266.207 248.232 267.425C248.185 268.642 247.623 269.719 246.78 270.469L204.444 308.871C204.444 308.871 218.306 327.697 219.336 326.199C219.992 325.262 257.926 290.326 270.992 278.243C271.023 278.243 271.054 278.227 271.086 278.196C274.645 274.871 273.568 269.345 273.521 269.064L253.055 212.912L210.719 182.425L202.851 194.133C200.791 198.254 200.041 206.122 202.008 212.303C203.975 218.532 208.05 223.543 213.154 226.728L247.108 264.24Z" fill="#6F0F37"/>
<path d="M205.942 212.538C208.143 218.673 212.358 223.496 217.557 226.54L232.356 235.157L284.526 257.403C285.697 258.058 286.681 259.042 287.383 260.259C288.086 261.524 288.367 262.882 288.32 264.193L287.008 306.483L286.962 309.246L286.915 310.323L286.774 316.786L286.681 320.392L286.587 325.075L286.259 336.455L308.223 337.813L308.739 328.072V327.463L308.926 323.67L308.973 323.061L309.16 319.549L309.207 318.378L309.394 314.631L309.488 312.805L311.595 253C311.689 251.221 311.361 249.394 310.612 247.708C309.816 245.976 308.645 244.524 307.287 243.4L266.449 216.565L256.193 209.166L211.328 180.786L208.097 189.356L206.177 194.32C204.022 199.987 203.788 206.356 205.942 212.538Z" fill="#7D1641"/>
<path d="M208.097 189.356C211.094 187.436 221.725 194.648 230.295 201.017C237.882 206.684 238.725 214.926 238.725 222.279C238.725 229.584 235.587 236.328 232.496 235.064C232.215 234.97 232.168 235.017 232.356 235.157C234.088 236.797 258.301 252.157 258.675 252.392C258.628 252.298 258.066 251.314 257.223 249.675C255.303 245.648 252.072 237.686 251.838 228.648C251.557 216.612 261.157 216.612 265.887 216.331L256.989 211.367L211.328 180.786L208.097 189.356Z" fill="#6F0F37"/>
<path d="M287.523 325.075L287.758 325.684C287.758 325.684 288.226 322.874 297.358 322.874C305.46 322.874 308.223 327.135 308.738 328.072V327.463L308.926 323.67L308.972 323.061L309.16 319.549L309.207 318.378L309.394 314.631L309.488 312.805L308.364 313.742H303.915L298.529 308.356L287.898 309.246L287.851 310.323L287.711 316.786L287.617 320.392L287.523 325.075Z" fill="#6F0F37"/>
<path d="M314.92 62.6285L317.777 94.7553C318.995 108.805 331.358 119.155 345.361 117.937L347.047 117.797C347.703 117.734 348.358 117.656 349.014 117.562C362.033 115.408 371.4 103.56 370.229 90.1657L367.419 58.039C366.482 47.3613 359.083 38.7911 349.435 35.8407C346.391 34.9509 343.16 34.5762 339.788 34.8572L338.102 34.9977C324.099 36.2153 313.703 48.579 314.92 62.6285Z" fill="#E28366"/>
<path d="M328.173 63.2374L330.983 95.3641C331.92 106.042 339.319 114.612 349.014 117.562C362.033 115.408 371.399 103.56 370.229 90.1657L367.419 58.039C366.482 47.3613 359.083 38.7911 349.435 35.8407C336.369 37.9949 327.003 49.8434 328.173 63.2374Z" fill="#FEB187"/>
<path d="M321.57 54.6203C321.57 54.6203 324.989 56.6809 333.184 52.7002C341.708 48.5321 354.025 44.6451 369.339 61.9729C377.534 32.2346 345.314 13.8765 323.162 31.9536C317.402 31.8599 292.394 53.871 318.292 77.8958C319.229 69.8875 321.57 54.6203 321.57 54.6203Z" fill="#7A3730"/>
<path d="M310.283 74.1492C308.223 78.5514 310.096 83.7966 314.498 85.904C318.947 87.9646 324.193 86.0445 326.253 81.6423C328.361 77.2401 326.441 71.9949 322.038 69.8875C317.636 67.8269 312.344 69.7002 310.283 74.1492Z" fill="#E28366"/>
<path d="M321.617 52.466L323.724 77.6148C323.724 77.6148 320.446 64.4082 312.391 71.3393C312.157 57.5239 321.617 52.466 321.617 52.466Z" fill="#7A3730"/>
<path d="M324.521 31.8599C323.678 30.0803 320.915 27.0831 316.653 29.1437C320.165 30.6891 322.835 36.2153 322.835 36.2153L324.521 31.8599Z" fill="#7A3730"/>
<path d="M326.254 30.5018C326.16 28.5349 324.849 24.6946 320.072 24.882C322.694 27.6919 322.975 33.8269 322.975 33.8269L326.254 30.5018Z" fill="#7A3730"/>
<path d="M209.923 179.989L246.077 204.061L266.355 217.127L274.785 204.014L218.868 166.923L209.923 179.989Z" fill="#24293A"/>
<path d="M270.383 195.303L258.254 184.907L251.088 186.921L252.915 179.896L250.339 178.069L241.675 179.849L245.515 176.477L228.281 162.943L225.471 169.031L222.661 159.196L219.664 167.392L263.499 196.568L270.383 195.303Z" fill="#03318B"/>
<path d="M212.03 177.039L254.647 205.653C255.818 206.449 257.41 206.122 258.207 204.951L260.642 201.392C261.438 200.268 261.11 198.675 259.939 197.879L217.275 169.218L216.76 170.014L212.03 177.039Z" fill="#354059"/>
<path d="M212.124 342.449L215.73 339.265L214.606 339.031C214.512 338.875 214.403 338.703 214.278 338.516L212.124 342.449Z" fill="#1C2035"/>
<path d="M343.113 78.2236C343.253 79.7222 342.129 81.0335 340.584 81.174C339.085 81.2677 337.774 80.1437 337.633 78.6451C337.54 77.0996 338.664 75.7883 340.162 75.6947C341.708 75.5542 343.019 76.6781 343.113 78.2236Z" fill="#47231C"/>
<path d="M361.705 75.9288C361.799 77.4274 360.675 78.7856 359.176 78.8792C357.631 79.0197 356.319 77.8489 356.226 76.3503C356.085 74.8517 357.209 73.5404 358.755 73.3999C360.253 73.3062 361.565 74.4302 361.705 75.9288Z" fill="#47231C"/>
<path d="M364.234 69.9812C364.234 69.9812 361.05 70.2153 355.523 67.6396" stroke="#572B22" stroke-width="5.1" stroke-miterlimit="10" stroke-linecap="round"/>
<path d="M336.51 70.6368C336.51 70.6368 339.694 70.4963 344.893 67.3117" stroke="#572B22" stroke-width="5.1" stroke-miterlimit="10" stroke-linecap="round"/>
<path d="M355.289 84.0776C354.634 84.8737 353.229 85.5294 351.543 85.6699C349.857 85.7635 348.358 85.3889 347.562 84.6396C347.281 85.0142 347.141 85.3889 347.141 85.7635C347.281 87.0748 349.295 87.9646 351.683 87.7773C354.119 87.59 355.992 86.3723 355.898 85.061C355.851 84.6864 355.617 84.3586 355.289 84.0776Z" fill="#F48967"/>
<path d="M345.314 98.9233C349.623 95.0362 354.821 96.207 357.818 97.3778" stroke="#D86E52" stroke-width="6.5" stroke-miterlimit="10" stroke-linecap="round"/>
<path d="M343.253 41.1795C349.201 43.0996 354.072 51.623 355.757 57.8985C355.757 57.8985 340.912 49.0473 333.184 52.7002C327.33 55.4164 325.691 46.9867 327.565 43.6148C329.438 40.2897 335.76 38.9316 335.76 38.9316L343.253 41.1795Z" fill="#7A3730"/>
<g style="mix-blend-mode:multiply">
<path d="M418.653 234.502L419.496 235.111C419.496 235.111 419.028 236.235 418.325 237.78C417.264 239.279 416.155 240.73 415 242.135C413.783 239.279 411.394 236.422 412.424 233.753C412.986 232.254 415 232.02 416.312 232.816L418.653 234.502Z" fill="#9BB2AE"/>
</g>
<g style="mix-blend-mode:multiply">
<path d="M419.496 235.111L419.964 234.455L420.386 234.736L421.088 235.251C421.026 235.595 420.979 235.922 420.948 236.235C420.761 236.016 420.542 235.829 420.292 235.673L419.918 235.438L419.496 235.111Z" fill="#9BB2AE"/>
</g>
<g style="mix-blend-mode:multiply">
<path d="M428.301 217.923C427.177 221.42 425.803 224.792 424.179 228.039L419.965 234.455L419.168 233.893L414.438 230.708C413.127 229.865 412.752 228.133 413.549 226.821C414.392 225.463 416.124 225.089 417.482 225.932L422.587 229.491H422.634C422.634 229.428 422.65 229.366 422.681 229.303C422.743 229.116 422.806 228.913 422.868 228.695L416.124 224.105C414.766 223.262 414.392 221.529 415.188 220.171C416.031 218.86 417.81 218.485 419.122 219.281L424.835 223.262C424.929 223.044 425.007 222.841 425.069 222.653L419.449 218.766C418.138 217.923 417.717 216.191 418.56 214.832C419.356 213.521 421.135 213.1 422.447 213.943L428.301 217.923Z" fill="#9BB2AE"/>
</g>
<path d="M421.744 213.006C420.901 214.364 421.323 216.097 422.634 216.94L429.799 221.764C431.111 222.606 432.89 222.232 433.686 220.874C434.529 219.562 434.108 217.83 432.796 216.987L425.631 212.116C424.32 211.273 422.587 211.695 421.744 213.006Z" fill="#FEB187"/>
<path d="M418.138 218.813C417.295 220.124 417.717 221.857 419.028 222.7L428.91 229.257C430.221 230.1 431.954 229.678 432.797 228.367C433.64 227.056 433.218 225.276 431.907 224.433L422.025 217.923C420.714 217.08 418.981 217.455 418.138 218.813Z" fill="#FEB187"/>
<path d="M416.218 225.838C415.375 227.149 415.796 228.929 417.108 229.772L424.273 234.595C425.584 235.438 427.364 235.017 428.16 233.706C429.003 232.394 428.628 230.662 427.27 229.819L420.105 224.948C418.794 224.105 417.061 224.527 416.218 225.838Z" fill="#FEB187"/>
<path d="M414.813 233.191C413.97 234.549 414.391 236.281 415.703 237.124L419.683 239.981C420.995 240.777 422.728 240.403 423.571 239.045C424.414 237.733 423.992 236 422.681 235.157L418.7 232.301C417.389 231.458 415.656 231.879 414.813 233.191Z" fill="#FEB187"/>
<path d="M322.179 241.152L295.485 194.18L322.179 241.152Z" fill="#03318B"/>
<path d="M322.179 241.152L295.485 194.18" stroke="#03318B" stroke-width="42" stroke-miterlimit="10" stroke-linecap="round"/>
<path d="M269.446 200.455L274.785 204.014L266.355 217.127L260.97 213.662L269.446 200.455Z" fill="#2C344C"/>
<path fill-rule="evenodd" clip-rule="evenodd" d="M252.68 205.887L253.383 211.835C253.758 215.488 251.182 218.719 247.576 219.141C243.923 219.562 240.691 216.94 240.27 213.334L239.614 207.339C239.193 203.733 241.815 200.455 245.421 200.08C249.028 199.659 252.306 202.281 252.68 205.887ZM249.824 212.257L249.168 206.262C248.981 204.623 247.482 203.405 245.796 203.593C244.157 203.78 242.939 205.279 243.127 206.965L243.829 212.912C244.017 214.598 245.515 215.769 247.154 215.582C248.793 215.394 250.011 213.896 249.824 212.257Z" fill="#24293A"/>
<path fill-rule="evenodd" clip-rule="evenodd" d="M253.289 226.821L253.757 232.816C254.038 236.469 251.322 239.653 247.716 239.934C244.063 240.215 240.879 237.499 240.598 233.893L240.129 227.898C239.848 224.246 242.565 221.061 246.171 220.78C249.824 220.499 253.008 223.215 253.289 226.821ZM250.198 233.097L249.73 227.102C249.589 225.463 248.138 224.199 246.452 224.339C244.813 224.48 243.548 225.932 243.689 227.618L244.157 233.612C244.297 235.251 245.749 236.516 247.435 236.375C249.074 236.235 250.339 234.783 250.198 233.097Z" fill="#24293A"/>
<path fill-rule="evenodd" clip-rule="evenodd" d="M254.694 247.1L255.584 253.047C256.099 256.653 253.617 260.025 250.011 260.54C246.405 261.056 243.08 258.573 242.518 254.967L241.675 249.067C241.113 245.46 243.595 242.089 247.201 241.573C250.807 241.011 254.179 243.494 254.694 247.1ZM252.072 253.562L251.182 247.615C250.901 245.976 249.402 244.852 247.716 245.086C246.077 245.32 244.953 246.865 245.187 248.505L246.077 254.452C246.311 256.138 247.857 257.262 249.496 257.028C251.135 256.794 252.306 255.248 252.072 253.562Z" fill="#24293A"/>
<path fill-rule="evenodd" clip-rule="evenodd" d="M257.363 266.582L259.33 272.248C260.548 275.667 258.768 279.46 255.303 280.631C251.884 281.849 248.138 280.069 246.92 276.604L244.906 270.937C243.689 267.518 245.515 263.772 248.934 262.554C252.352 261.337 256.146 263.163 257.363 266.582ZM256.005 273.419L253.992 267.753C253.43 266.16 251.697 265.364 250.104 265.926C248.559 266.441 247.716 268.174 248.278 269.766L250.292 275.433C250.854 277.025 252.587 277.821 254.132 277.259C255.724 276.744 256.52 275.011 256.005 273.419Z" fill="#24293A"/>
<path fill-rule="evenodd" clip-rule="evenodd" d="M264.482 283.722L268.322 288.359C270.617 291.122 270.242 295.29 267.432 297.631C264.622 299.926 260.454 299.551 258.16 296.741L254.319 292.105C252.025 289.295 252.399 285.127 255.209 282.832C258.019 280.491 262.187 280.912 264.482 283.722ZM265.559 290.606L261.719 285.97C260.689 284.706 258.768 284.518 257.457 285.595C256.193 286.626 256.005 288.546 257.083 289.81L260.876 294.447C261.953 295.758 263.873 295.945 265.138 294.868C266.449 293.791 266.636 291.918 265.559 290.606Z" fill="#24293A"/>
<path fill-rule="evenodd" clip-rule="evenodd" d="M276.705 297.772L281.763 301.003C284.854 302.923 285.744 306.998 283.824 310.089C281.857 313.133 277.783 314.069 274.738 312.149L269.634 308.918C266.59 306.998 265.653 302.876 267.573 299.832C269.54 296.741 273.614 295.852 276.705 297.772ZM279.843 304L274.785 300.769C273.38 299.879 271.507 300.301 270.617 301.752C269.727 303.157 270.149 305.031 271.554 305.921L276.612 309.105C278.063 309.995 279.89 309.573 280.827 308.168C281.716 306.764 281.295 304.89 279.843 304Z" fill="#24293A"/>
<path fill-rule="evenodd" clip-rule="evenodd" d="M292.113 307.185L298.108 307.653C301.76 307.934 304.477 311.072 304.196 314.725C303.915 318.331 300.777 321.047 297.124 320.813L291.13 320.345C287.524 320.064 284.807 316.926 285.041 313.273C285.322 309.667 288.507 306.951 292.113 307.185ZM297.873 311.213L291.879 310.744C290.193 310.651 288.741 311.868 288.601 313.554C288.507 315.24 289.725 316.692 291.411 316.786L297.405 317.254C299.091 317.348 300.543 316.083 300.636 314.444C300.777 312.758 299.512 311.306 297.873 311.213Z" fill="#24293A"/>
<path fill-rule="evenodd" clip-rule="evenodd" d="M311.97 308.73L317.964 308.309C321.57 308.075 324.708 310.838 324.989 314.444C325.223 318.097 322.46 321.235 318.854 321.469L312.859 321.89C309.207 322.124 306.069 319.361 305.835 315.755C305.554 312.149 308.317 308.965 311.97 308.73ZM318.198 311.868L312.204 312.29C310.518 312.383 309.253 313.835 309.394 315.521C309.488 317.16 310.939 318.425 312.578 318.331L318.62 317.91C320.259 317.816 321.523 316.364 321.43 314.678C321.289 313.039 319.837 311.775 318.198 311.868Z" fill="#24293A"/>
<path d="M249.308 215.91C249.402 214.505 248.325 213.287 246.92 213.193C245.515 213.1 244.297 214.177 244.204 215.582L243.735 223.73C243.689 225.135 244.766 226.353 246.171 226.447C247.576 226.494 248.793 225.416 248.84 224.011L249.308 215.91Z" fill="#24293A"/>
<path d="M250.385 236.562C250.385 235.157 249.215 234.033 247.81 234.033C246.405 234.033 245.281 235.157 245.281 236.609V244.711C245.281 246.116 246.452 247.287 247.857 247.287C249.261 247.287 250.385 246.116 250.385 244.711V236.562Z" fill="#24293A"/>
<path d="M251.884 257.356C251.697 255.951 250.432 254.921 249.027 255.108C247.622 255.248 246.639 256.513 246.779 257.918L247.716 266.02C247.903 267.425 249.168 268.408 250.573 268.268C251.978 268.08 252.961 266.816 252.821 265.411L251.884 257.356Z" fill="#24293A"/>
<path d="M256.849 276.463C256.24 275.199 254.694 274.637 253.43 275.246C252.165 275.854 251.603 277.353 252.212 278.618L255.678 286.017C256.287 287.281 257.785 287.843 259.05 287.235C260.361 286.626 260.876 285.08 260.314 283.816L256.849 276.463Z" fill="#24293A"/>
<path d="M267.292 293.463C266.402 292.339 264.763 292.199 263.686 293.089C262.609 294.025 262.468 295.618 263.358 296.695L268.556 302.97C269.446 304.047 271.038 304.235 272.116 303.298C273.24 302.408 273.38 300.816 272.49 299.739L267.292 293.463Z" fill="#24293A"/>
<path d="M282.372 306.155C281.201 305.405 279.609 305.733 278.859 306.951C278.11 308.122 278.485 309.714 279.656 310.463L286.54 314.819C287.711 315.568 289.303 315.24 290.052 314.022C290.802 312.852 290.474 311.259 289.256 310.51L282.372 306.155Z" fill="#24293A"/>
<path d="M301.011 312.337C299.606 312.337 298.435 313.46 298.435 314.865C298.435 316.317 299.606 317.441 301.011 317.441H309.16C310.565 317.441 311.688 316.27 311.688 314.865C311.688 313.46 310.565 312.337 309.16 312.337H301.011Z" fill="#24293A"/>
<path d="M321.243 312.243C319.838 312.43 318.901 313.695 319.088 315.1C319.276 316.505 320.587 317.488 321.945 317.301L330 316.13C331.405 315.943 332.389 314.678 332.201 313.273C332.014 311.868 330.703 310.885 329.298 311.072L321.243 312.243Z" fill="#24293A"/>
<path d="M345.595 265.973C347.375 269.954 347.094 270.141 347.983 272.529C348.686 274.543 344.424 276.838 342.738 273.326C340.631 268.83 341.099 268.549 341.099 268.549L343.581 265.786L345.595 265.973Z" fill="#FEB187"/>
<defs>
<linearGradient id="paint0_linear_113_2564" x1="251.336" y1="235.028" x2="366.549" y2="20.6427" gradientUnits="userSpaceOnUse">
<stop stop-color="#24293A"/>
<stop offset="1" stop-color="#354059"/>
</linearGradient>
</defs>
</svg>
